<mxfile modified="2022-11-29T19:28:05.871Z" host="app.diagrams.net" agent="5.0 (Windows NT 10.0; Win64; x64) AppleWebKit/537.36 (KHTML, like Gecko) Chrome/107.0.0.0 Safari/537.36" etag="JQBWe4eOObMW-2sWNQx-" version="20.6.0" type="github">
  <diagram id="C2fSY1v2SiZeoUbDoYyL" name="Page-1">
    <mxGraphModel dx="1102" dy="582" grid="1" gridSize="10" guides="1" tooltips="1" connect="1" arrows="1" fold="1" page="1" pageScale="1" pageWidth="1169" pageHeight="827" math="0" shadow="0">
      <root>
        <mxCell id="0" />
        <mxCell id="1" parent="0" />
        <mxCell id="5Y_TLcKwmcfd6Oil7Y43-13" style="edgeStyle=orthogonalEdgeStyle;rounded=0;orthogonalLoop=1;jettySize=auto;html=1;exitX=1;exitY=0.5;exitDx=0;exitDy=0;" edge="1" parent="1" source="3ne1QswCM8ZiEu4GHsYG-4" target="5Y_TLcKwmcfd6Oil7Y43-1">
          <mxGeometry relative="1" as="geometry" />
        </mxCell>
        <mxCell id="3ne1QswCM8ZiEu4GHsYG-4" value="Manipulação e &#xa;tratamento de dados" style="shape=image;verticalLabelPosition=bottom;verticalAlign=top;aspect=fixed;image=data:image/svg+xml,PHN2ZyB4bWxucz0iaHR0cDovL3d3dy53My5vcmcvMjAwMC9zdmciIHhtbG5zOnhsaW5rPSJodHRwOi8vd3d3LnczLm9yZy8xOTk5L3hsaW5rIiB2ZXJzaW9uPSIxLjEiIGlkPSJMYXllcl8xIiB4PSIwcHgiIHk9IjBweCIgd2lkdGg9IjQ4cHgiIGhlaWdodD0iNDhweCIgdmlld0JveD0iMCAwIDQ4IDQ4IiBlbmFibGUtYmFja2dyb3VuZD0ibmV3IDAgMCA0OCA0OCIgeG1sOnNwYWNlPSJwcmVzZXJ2ZSI+JiN4YTs8ZyBpZD0iY29sb3JfMjNfIj4mI3hhOwk8Zz4mI3hhOwkJPHBhdGggZmlsbD0iI0ZGREE4RSIgZD0iTTQxLDI5VjdjMC0wLjU1My0wLjQ0Ny0xLTEtMUgyNHY3YzAsMC41NTMtMC40NDcsMS0xLDFoLTNjLTAuNTUzLDAtMS0wLjQ0Ny0xLTFWNmgtNSAgICBjLTAuNTUzLDAtMSwwLjQ0Ny0xLDF2MjJjMCwwLjU1MywwLjQ0NywxLDEsMWgyNkM0MC41NTMsMzAsNDEsMjkuNTUzLDQxLDI5eiBNMTAuNSwzN0M5LjExOSwzNyw4LDM4LjExOSw4LDM5LjVTOS4xMTksNDIsMTAuNSw0MiAgICBzMi41LTEuMTE5LDIuNS0yLjVTMTEuODgxLDM3LDEwLjUsMzd6IE0yMC41LDM3Yy0xLjM4MSwwLTIuNSwxLjExOS0yLjUsMi41czEuMTE5LDIuNSwyLjUsMi41czIuNS0xLjExOSwyLjUtMi41ICAgIFMyMS44ODEsMzcsMjAuNSwzN3ogTTMwLjUsMzdjLTEuMzgxLDAtMi41LDEuMTE5LTIuNSwyLjVzMS4xMTksMi41LDIuNSwyLjVzMi41LTEuMTE5LDIuNS0yLjVTMzEuODgxLDM3LDMwLjUsMzd6IE00MC41LDM3ICAgIGMtMS4zODEsMC0yLjUsMS4xMTktMi41LDIuNXMxLjExOSwyLjUsMi41LDIuNXMyLjUtMS4xMTksMi41LTIuNVM0MS44ODEsMzcsNDAuNSwzN3oiLz4mI3hhOwk8L2c+JiN4YTs8L2c+JiN4YTs8ZyBpZD0ib3V0bGluZV8yMl8iPiYjeGE7CTxnPiYjeGE7CQk8cGF0aCBmaWxsLXJ1bGU9ImV2ZW5vZGQiIGNsaXAtcnVsZT0iZXZlbm9kZCIgZmlsbD0iIzM4NEQ2OCIgZD0iTTIyLDM4YzAtMS42NTctMS4zNDQtMy0zLTNzLTMsMS4zNDMtMywzczEuMzQ0LDMsMywzICAgIFMyMiwzOS42NTcsMjIsMzh6IE0xOCwzOGMwLTAuNTUzLDAuNDQ3LTEsMS0xczEsMC40NDcsMSwxcy0wLjQ0NywxLTEsMVMxOCwzOC41NTMsMTgsMzh6IE00MiwzOGMwLTEuNjU3LTEuMzQzLTMtMy0zICAgIHMtMywxLjM0My0zLDNzMS4zNDMsMywzLDNTNDIsMzkuNjU3LDQyLDM4eiBNMzgsMzhjMC0wLjU1MywwLjQ0Ny0xLDEtMXMxLDAuNDQ3LDEsMXMtMC40NDcsMS0xLDFTMzgsMzguNTUzLDM4LDM4eiBNMzIsMzggICAgYzAtMS42NTctMS4zNDMtMy0zLTNzLTMsMS4zNDMtMywzczEuMzQzLDMsMywzUzMyLDM5LjY1NywzMiwzOHogTTI4LDM4YzAtMC41NTMsMC40NDctMSwxLTFzMSwwLjQ0NywxLDFzLTAuNDQ3LDEtMSwxICAgIFMyOCwzOC41NTMsMjgsMzh6IE0xMiwzOGMwLTEuNjU3LTEuMzQ0LTMtMy0zcy0zLDEuMzQzLTMsM3MxLjM0NCwzLDMsM1MxMiwzOS42NTcsMTIsMzh6IE04LDM4YzAtMC41NTMsMC40NDctMSwxLTFzMSwwLjQ0NywxLDEgICAgcy0wLjQ0NywxLTEsMVM4LDM4LjU1Myw4LDM4eiBNMzksMzFIM2MtMC41NTMsMC0xLDAuNDQ3LTEsMXMwLjQ0NywxLDEsMWgzNmMyLjc2MiwwLDUsMi4yMzgsNSw1cy0yLjIzOCw1LTUsNUgzICAgIGMtMC41NTMsMC0xLDAuNDQ3LTEsMXMwLjQ0NywxLDEsMWgzNmMzLjg2NiwwLDctMy4xMzQsNy03UzQyLjg2NiwzMSwzOSwzMXogTTEwLDI5aDI4YzAuNTUzLDAsMS0wLjQ0NywxLTFWNGMwLTAuNTUzLTAuNDQ3LTEtMS0xICAgIEgxMEM5LjQ0NywzLDksMy40NDcsOSw0djI0QzksMjguNTUzLDkuNDQ3LDI5LDEwLDI5eiBNMjksNmMwLTAuNTUzLDAuNDQ3LTEsMS0xaDd2MjJoLTdjLTAuNTUzLDAtMS0wLjQ0Ny0xLTFWNnogTTE4LDVoMnY2aC0yVjV6ICAgICBNMTEsNWg1djdjMCwwLjU1MywwLjQ0NywxLDEsMWg0YzAuNTUzLDAsMS0wLjQ0NywxLTFWNWg0YzAuNTUzLDAsMSwwLjQ0NywxLDF2MjBjMCwwLjU1My0wLjQ0NywxLTEsMUgxMVY1eiIvPiYjeGE7CTwvZz4mI3hhOzwvZz4mI3hhOzwvc3ZnPg==;spacingTop=-85;" parent="1" vertex="1">
          <mxGeometry x="267" y="335.00000000000034" width="48" height="48" as="geometry" />
        </mxCell>
        <mxCell id="5Y_TLcKwmcfd6Oil7Y43-12" style="edgeStyle=orthogonalEdgeStyle;rounded=0;orthogonalLoop=1;jettySize=auto;html=1;exitX=1;exitY=0.5;exitDx=0;exitDy=0;entryX=0;entryY=0.5;entryDx=0;entryDy=0;" edge="1" parent="1" source="3ne1QswCM8ZiEu4GHsYG-5" target="3ne1QswCM8ZiEu4GHsYG-4">
          <mxGeometry relative="1" as="geometry" />
        </mxCell>
        <mxCell id="3ne1QswCM8ZiEu4GHsYG-5" value="Entrada &#xa;de dados" style="shape=image;verticalLabelPosition=bottom;verticalAlign=top;aspect=fixed;image=data:image/svg+xml,PHN2ZyB4bWxucz0iaHR0cDovL3d3dy53My5vcmcvMjAwMC9zdmciIHhtbG5zOnhsaW5rPSJodHRwOi8vd3d3LnczLm9yZy8xOTk5L3hsaW5rIiB2ZXJzaW9uPSIxLjEiIGlkPSJMYXllcl8xIiB4PSIwcHgiIHk9IjBweCIgd2lkdGg9IjQ4cHgiIGhlaWdodD0iNDhweCIgdmlld0JveD0iMCAwIDQ4IDQ4IiBlbmFibGUtYmFja2dyb3VuZD0ibmV3IDAgMCA0OCA0OCIgeG1sOnNwYWNlPSJwcmVzZXJ2ZSI+JiN4YTs8ZyBpZD0iY29sb3JfMjlfIj4mI3hhOwk8Zz4mI3hhOwkJPHBhdGggZmlsbD0iI0ZGREE4RSIgZD0iTTQ1LjQzOCwxNy4wOTZsMC4wMDMtMC4wMDdsLTE5LTlsLTAuMDAzLDAuMDA3Yy0wLjEzLTAuMDYzLTAuMjcyLTAuMTA0LTAuNDI3LTAuMTA0ICAgIHMtMC4yOTcsMC4wNDEtMC40MjcsMC4xMDRsLTAuMDAzLTAuMDA3bC0xOSw5bDAuMDAzLDAuMDA3Yy0wLjMzNiwwLjE2MS0wLjU3MywwLjQ5OS0wLjU3MywwLjg5NnYxNyAgICBjMCwwLjM5NywwLjIzNywwLjczNSwwLjU3MywwLjg5NmwtMC4wMDMsMC4wMDdsMjAsMTBsMC4wMDMtMC4wMDdjMC4xMywwLjA2MywwLjI3MiwwLjEwNCwwLjQyNywwLjEwNHMwLjI5Ny0wLjA0MSwwLjQyNy0wLjEwNCAgICBsMC4wMDMsMC4wMDdsMTgtOS4wMDFsLTAuMDAzLTAuMDA2YzAuMzM3LTAuMTYxLDAuNTczLTAuNDk5LDAuNTczLTAuODk2di0xOEM0Ni4wMTEsMTcuNTk1LDQ1Ljc3NSwxNy4yNTcsNDUuNDM4LDE3LjA5NnoiLz4mI3hhOwk8L2c+JiN4YTs8L2c+JiN4YTs8ZyBpZD0ib3V0bGluZV8yOF8iPiYjeGE7CTxnPiYjeGE7CQk8cGF0aCBmaWxsPSIjMzg0RDY4IiBkPSJNMy43MTMsMTAuNjczTDYuNTcsNy41MjFjNC43MzYtNC43MzUsOS43MDctNC43MjEsMTQuNDI4LDBsMi42MTEsMi40NzRsLTQuNTk4LTAuMDAyICAgIGMtMC41MzQtMC4wMDEtMS4wMDEsMC40NzUtMSwxczAuNDY2LDAuOTk5LDEsMWw3LjAyMSwwLjAwM2MwLjUzNSwwLjAwMiwwLjk4LTAuNDc4LDAuOTc5LTEuMDAzdi03Yy0wLjAwMi0wLjUyNS0wLjQ2Ni0wLjk5OS0xLTEgICAgcy0xLjAwMiwwLjQ3NS0xLDFsLTAuMDE2LDQuNzEzbC0yLjU3LTIuNTg5Yy01LjUwNS01LjUwNS0xMS44MzItNS40NTMtMTcuMjg0LDBMMi4yODUsOS4yNjljLTAuMzk1LDAuMzg4LTAuMzk1LDEuMDE3LDAsMS40MDQgICAgUzMuMzE5LDExLjA2MSwzLjcxMywxMC42NzN6IE00NS45NDEsMTUuNjQ2Yy0wLjAxMi0wLjAzNC0wLjAyOC0wLjA2My0wLjA0NS0wLjA5NmMtMC4wMzctMC4wNzQtMC4wODItMC4xNDEtMC4xMzUtMC4yMDIgICAgYy0wLjAyNC0wLjAyNy0wLjA0NS0wLjA1Ny0wLjA3Mi0wLjA4MmMtMC4wNzQtMC4wNjktMC4xNTYtMC4xMjktMC4yNDktMC4xNzRsMC4wMDEtMC4wMDNMMzAuNDM1LDguMDk0ICAgIGMtMC4xMy0wLjA2Mi0wLjI3MS0wLjEwMi0wLjQyNC0wLjEwMmMtMC41NTMsMC0xLDAuNDQ3LTEsMWMwLDAuNzI1LDAuODg2LDEuMDY2LDAuNzk4LDEuMDA1bC0wLjE3My0wLjA4ICAgIGMwLjExMiwwLjA0NSwwLjE1NSwwLjA2NywwLjE3MywwLjA4bDEyLjg3Niw1Ljk5NWwtMTIuNTE3LDUuOTYxbC01LjE1Ny0yLjU3OXYtNC4zODJjMC0wLjU1My0wLjQ0Ny0xLTEtMWMtMC41NTIsMC0xLDAuNDQ3LTEsMSAgICB2NC4zODJsLTUuMTU3LDIuNTc5TDUuMzM3LDE1Ljk5M2w4Ljk4OC00LjA2M2MwLjM5Ni0wLjEzMywwLjY4Ni0wLjQ5NSwwLjY4Ni0wLjkzN2MwLTAuNTUzLTAuNDQ4LTEtMS0xICAgIGMtMC4yNDEsMC0wLjM0MSwwLjA0Ni0wLjM0MSwwLjA0NkwyLjU4MiwxNS4wODlsMC4wMDEsMC4wMDNjLTAuMDkzLDAuMDQ1LTAuMTc1LDAuMTA0LTAuMjUsMC4xNzQgICAgYy0wLjAyNywwLjAyNS0wLjA0NywwLjA1NS0wLjA3MSwwLjA4MmMtMC4wNTMsMC4wNjItMC4wOTksMC4xMjgtMC4xMzYsMC4yMDJjLTAuMDE2LDAuMDMyLTAuMDMyLDAuMDYyLTAuMDQ1LDAuMDk2ICAgIGMtMC4wNDEsMC4xMDktMC4wNywwLjIyNC0wLjA3LDAuMzQ3djE5YzAsMC4zOTgsMC4yMzQsMC43MzksMC41NzEsMC45bC0wLjAwMSwwLjAwM2wyMSwxMGwwLjAwMS0wLjAwMyAgICBjMC4xMywwLjA2MiwwLjI3NCwwLjEsMC40MjksMC4xczAuMjk5LTAuMDM4LDAuNDI5LTAuMWwwLjAwMSwwLjAwM2wyMS0xMGwtMC4wMDEtMC4wMDNjMC4zMzctMC4xNjEsMC41NzEtMC41MDIsMC41NzEtMC45di0xOSAgICBDNDYuMDExLDE1Ljg3LDQ1Ljk4MiwxNS43NTUsNDUuOTQxLDE1LjY0NnogTTIzLjAxMSw0My40MDlsLTE5LTkuMDQ4VjE3LjU3N2wxOSw5LjA0OFY0My40MDl6IE0yNC4wMTEsMjQuODg1bC0zLjg2Ni0xLjg0MiAgICBsMy44NjYtMS45MzNsMy44NjYsMS45MzNMMjQuMDExLDI0Ljg4NXogTTQ0LjAxMSwzNC4zNjFsLTE5LDkuMDQ4VjI2LjYyNWwxOS05LjA0OFYzNC4zNjF6Ii8+JiN4YTsJPC9nPiYjeGE7PC9nPiYjeGE7PC9zdmc+;spacingTop=-85;" parent="1" vertex="1">
          <mxGeometry x="147" y="335.00000000000034" width="48" height="48" as="geometry" />
        </mxCell>
        <mxCell id="5Y_TLcKwmcfd6Oil7Y43-22" style="edgeStyle=orthogonalEdgeStyle;rounded=0;orthogonalLoop=1;jettySize=auto;html=1;exitX=1;exitY=0.5;exitDx=0;exitDy=0;entryX=0;entryY=0.5;entryDx=0;entryDy=0;" edge="1" parent="1" source="3ne1QswCM8ZiEu4GHsYG-8" target="5Y_TLcKwmcfd6Oil7Y43-21">
          <mxGeometry relative="1" as="geometry" />
        </mxCell>
        <mxCell id="3ne1QswCM8ZiEu4GHsYG-8" value="Extração &#xa;de dados&#xa;" style="shape=image;verticalLabelPosition=bottom;verticalAlign=top;aspect=fixed;image=data:image/svg+xml,PHN2ZyB4bWxucz0iaHR0cDovL3d3dy53My5vcmcvMjAwMC9zdmciIHhtbG5zOnhsaW5rPSJodHRwOi8vd3d3LnczLm9yZy8xOTk5L3hsaW5rIiB2ZXJzaW9uPSIxLjEiIGlkPSJMYXllcl8xIiB4PSIwcHgiIHk9IjBweCIgd2lkdGg9IjQ4cHgiIGhlaWdodD0iNDhweCIgdmlld0JveD0iMCAwIDQ4IDQ4IiBlbmFibGUtYmFja2dyb3VuZD0ibmV3IDAgMCA0OCA0OCIgeG1sOnNwYWNlPSJwcmVzZXJ2ZSI+JiN4YTs8ZyBpZD0iY29sb3JfMzVfIj4mI3hhOwk8Zz4mI3hhOwkJPHBhdGggZmlsbD0iIzg5OENDNSIgZD0iTTQ0LjU3MiwyMy40MmwtMy41LTYuMDYzYy0wLjI3Ni0wLjQ3OS0wLjg4OC0wLjY0My0xLjM2Ni0wLjM2NmwtOS41MjYsNS41ICAgIGMtMC40NzksMC4yNzYtMC42NDIsMC44ODgtMC4zNjYsMS4zNjZsMy41LDYuMDYzYzAuMjc2LDAuNDc4LDAuODg4LDAuNjQyLDEuMzY2LDAuMzY1bDkuNTI2LTUuNSAgICBDNDQuNjg1LDI0LjUxLDQ0Ljg0OSwyMy44OTcsNDQuNTcyLDIzLjQyeiBNNDAuMzAzLDM3Ljk5N2MtMi4yMDksMC00LDEuNzkxLTQsNHMxLjc5MSw0LDQsNHM0LTEuNzkxLDQtNCAgICBTNDIuNTEyLDM3Ljk5Nyw0MC4zMDMsMzcuOTk3eiIvPiYjeGE7CTwvZz4mI3hhOzwvZz4mI3hhOzxnIGlkPSJvdXRsaW5lXzM1XyI+JiN4YTsJPGc+JiN4YTsJCTxwYXRoIGZpbGw9IiMzODRENjgiIGQ9Ik0yOS42NzksMzAuMTMxYzAuMjc1LDAuNDc5LDAuODg4LDAuNjQzLDEuMzY1LDAuMzY2bDEwLjM5My02YzAuNDc5LTAuMjc2LDAuNjQzLTAuODg4LDAuMzY2LTEuMzY2ICAgIGwtNC02LjkyOGMtMC4yNzYtMC40NzktMC44ODgtMC42NDMtMS4zNjYtMC4zNjZsLTEwLjM5Myw2Yy0wLjQ3OCwwLjI3Ni0wLjY0MiwwLjg4OC0wLjM2NSwxLjM2NkwyOS42NzksMzAuMTMxeiBNMzEuMzc1LDIxLjA2OCAgICBsMS41LDIuNTk5bDEuNzMxLTFsLTEuNS0yLjU5OWwzLjQ2NC0xLjk5OWwzLDUuMTk1bC04LjY2LDVsLTMtNS4xOTVMMzEuMzc1LDIxLjA2OHogTTQwLjE4NSwyOS40ODYgICAgYy0wLjI3OS0wLjQ4LTAuODk4LTAuNjQ1LTEuMzgzLTAuMzY3bC05LjY0LDUuNTE1TDEwLjQ0LDIuNTA1QzEwLjE2LDIuMDI1LDkuNTQyLDEuODYsOS4wNTksMi4xMzhMMy44LDUuMTQ2ICAgIEMzLjMxNSw1LjQyMywzLjE1LDYuMDM2LDMuNDMsNi41MTZzMC44OTgsMC42NDQsMS4zODIsMC4zNjdsNC4zODItMi41MDdsMTguNzIyLDMyLjEyOWMwLjI3OSwwLjQ3OSwwLjg5OCwwLjY0NCwxLjM4MiwwLjM2NyAgICBsMTAuNTE3LTYuMDE3QzQwLjI5OCwzMC41NzksNDAuNDY0LDI5Ljk2Niw0MC4xODUsMjkuNDg2eiBNMzcuMzAzLDM1Ljk5N2MtMi43NjIsMC01LDIuMjM4LTUsNXMyLjIzOCw1LDUsNXM1LTIuMjM4LDUtNSAgICBTNDAuMDY0LDM1Ljk5NywzNy4zMDMsMzUuOTk3eiBNMzcuMzAzLDQzLjk5N2MtMS42NTcsMC0zLTEuMzQzLTMtM3MxLjM0My0zLDMtM3MzLDEuMzQzLDMsM1MzOC45Niw0My45OTcsMzcuMzAzLDQzLjk5N3oiLz4mI3hhOwk8L2c+JiN4YTs8L2c+JiN4YTs8L3N2Zz4=" parent="1" vertex="1">
          <mxGeometry x="577" y="258.00000000000034" width="48" height="48" as="geometry" />
        </mxCell>
        <mxCell id="5Y_TLcKwmcfd6Oil7Y43-10" style="edgeStyle=orthogonalEdgeStyle;rounded=0;orthogonalLoop=1;jettySize=auto;html=1;exitX=1;exitY=0.5;exitDx=0;exitDy=0;entryX=0;entryY=0.5;entryDx=0;entryDy=0;" edge="1" parent="1" source="3ne1QswCM8ZiEu4GHsYG-16" target="3ne1QswCM8ZiEu4GHsYG-5">
          <mxGeometry relative="1" as="geometry" />
        </mxCell>
        <mxCell id="3ne1QswCM8ZiEu4GHsYG-16" value="Usuário preenche&#xa;o formulário" style="shape=image;verticalLabelPosition=bottom;verticalAlign=top;aspect=fixed;image=data:image/svg+xml,PHN2ZyB4bWxucz0iaHR0cDovL3d3dy53My5vcmcvMjAwMC9zdmciIHhtbG5zOnhsaW5rPSJodHRwOi8vd3d3LnczLm9yZy8xOTk5L3hsaW5rIiB2ZXJzaW9uPSIxLjEiIGlkPSJMYXllcl8xIiB4PSIwcHgiIHk9IjBweCIgd2lkdGg9IjQ4cHgiIGhlaWdodD0iNDhweCIgdmlld0JveD0iMCAwIDQ4IDQ4IiBlbmFibGUtYmFja2dyb3VuZD0ibmV3IDAgMCA0OCA0OCIgeG1sOnNwYWNlPSJwcmVzZXJ2ZSI+JiN4YTs8ZyBpZD0iY29sb3JfNTFfIj4mI3hhOwk8Zz4mI3hhOwkJPHBhdGggZmlsbD0iIzg5OENDNSIgZD0iTTQzLDZoLTV2NGMwLDEuMTA0LTAuODk2LDItMiwyaC0yYy0xLjEwNCwwLTItMC44OTYtMi0yVjZIMTh2NGMwLDEuMTA0LTAuODk2LDItMiwyaC0yICAgIGMtMS4xMDQsMC0yLTAuODk2LTItMlY2SDlDOC40NDcsNiw4LDYuNDQ3LDgsN3YzOGMwLDAuNTUzLDAuNDQ3LDEsMSwxaDM0YzAuNTUzLDAsMS0wLjQ0NywxLTFWN0M0NCw2LjQ0Nyw0My41NTMsNiw0Myw2eiIvPiYjeGE7CTwvZz4mI3hhOzwvZz4mI3hhOzxnIGlkPSJvdXRsaW5lXzQ5XyI+JiN4YTsJPGc+JiN4YTsJCTxwYXRoIGZpbGw9IiMzODRENjgiIGQ9Ik0xNS43MTUsMjguMjg1Yy0wLjM3NS0wLjM3NS0wLjk4Mi0wLjM3NS0xLjM1NywwTDEzLDI5LjY0M2wtMS4zNTctMS4zNTcgICAgYy0wLjM3NS0wLjM3NS0wLjk4Mi0wLjM3NS0xLjM1NywwYy0wLjM3NSwwLjM3NC0wLjM3NSwwLjk4MiwwLDEuMzU3TDExLjY0MywzMWwtMS4zNTcsMS4zNTdjLTAuMzc1LDAuMzc1LTAuMzc1LDAuOTgzLDAsMS4zNTcgICAgYzAuMzc1LDAuMzc1LDAuOTgyLDAuMzc1LDEuMzU3LDBMMTMsMzIuMzU3bDEuMzU3LDEuMzU3YzAuMzc1LDAuMzc1LDAuOTgyLDAuMzc1LDEuMzU3LDBjMC4zNzUtMC4zNzQsMC4zNzUtMC45ODIsMC0xLjM1NyAgICBMMTQuMzU3LDMxbDEuMzU3LTEuMzU3QzE2LjA5LDI5LjI2OCwxNi4wOSwyOC42NTksMTUuNzE1LDI4LjI4NXogTTE1LjcxNSwxOC4yODVjLTAuMzc1LTAuMzc1LTAuOTgyLTAuMzc1LTEuMzU3LDBMMTMsMTkuNjQzICAgIGwtMS4zNTctMS4zNTdjLTAuMzc1LTAuMzc1LTAuOTgyLTAuMzc1LTEuMzU3LDBjLTAuMzc1LDAuMzc0LTAuMzc1LDAuOTgyLDAsMS4zNTdMMTEuNjQzLDIxbC0xLjM1NywxLjM1NyAgICBjLTAuMzc1LDAuMzc1LTAuMzc1LDAuOTgyLDAsMS4zNTdzMC45ODIsMC4zNzUsMS4zNTcsMEwxMywyMi4zNTdsMS4zNTcsMS4zNTdjMC4zNzUsMC4zNzUsMC45ODIsMC4zNzUsMS4zNTcsMCAgICBzMC4zNzUtMC45ODIsMC0xLjM1N0wxNC4zNTcsMjFsMS4zNTctMS4zNTdDMTYuMDksMTkuMjY4LDE2LjA5LDE4LjY1OSwxNS43MTUsMTguMjg1eiBNNDEsNmgtNVY0YzAtMS4xMDQtMC44OTYtMi0yLTJoLTIgICAgYy0xLjEwNCwwLTIsMC44OTYtMiwydjJIMTZWNGMwLTEuMTA0LTAuODk2LTItMi0yaC0yYy0xLjEwNCwwLTIsMC44OTYtMiwydjJINUM0LjQ0Nyw2LDQsNi40NDcsNCw3djM4YzAsMC41NTMsMC40NDcsMSwxLDFoMzYgICAgYzAuNTUzLDAsMS0wLjQ0NywxLTFWN0M0Miw2LjQ0Nyw0MS41NTMsNiw0MSw2eiBNMzIsNWMwLTAuNTUzLDAuNDQ3LTEsMS0xczEsMC40NDcsMSwxdjRjMCwwLjU1My0wLjQ0NywxLTEsMXMtMS0wLjQ0Ny0xLTFWNXogICAgIE0xMiw1YzAtMC41NTMsMC40NDctMSwxLTFzMSwwLjQ0NywxLDF2NGMwLDAuNTUzLTAuNDQ3LDEtMSwxcy0xLTAuNDQ3LTEtMVY1eiBNNDAsNDRINlY4aDR2MmMwLDEuMTA0LDAuODk2LDIsMiwyaDIgICAgYzEuMTA0LDAsMi0wLjg5NiwyLTJWOGgxNHYyYzAsMS4xMDQsMC44OTYsMiwyLDJoMmMxLjEwNCwwLDItMC44OTYsMi0yVjhoNFY0NHogTTM0LDIwSDIwYy0wLjU1MywwLTEsMC40NDctMSwxczAuNDQ3LDEsMSwxaDE0ICAgIGMwLjU1MywwLDEtMC40NDcsMS0xUzM0LjU1MywyMCwzNCwyMHogTTMwLDMwSDIwYy0wLjU1MywwLTEsMC40NDctMSwxczAuNDQ3LDEsMSwxaDEwYzAuNTUzLDAsMS0wLjQ0NywxLTFTMzAuNTUzLDMwLDMwLDMweiIvPiYjeGE7CTwvZz4mI3hhOzwvZz4mI3hhOzwvc3ZnPg==" parent="1" vertex="1">
          <mxGeometry x="23.5" y="335.0000000000001" width="48" height="48" as="geometry" />
        </mxCell>
        <mxCell id="3ne1QswCM8ZiEu4GHsYG-31" value="Sistema de Inserção de Dados e Anonimização" style="text;html=1;strokeColor=none;fillColor=none;align=center;verticalAlign=middle;whiteSpace=wrap;rounded=0;fontStyle=1;fontSize=20;fontColor=#4D4D4D;" parent="1" vertex="1">
          <mxGeometry x="189.5" y="40" width="790" height="30" as="geometry" />
        </mxCell>
        <mxCell id="3ne1QswCM8ZiEu4GHsYG-32" value="" style="line;strokeWidth=2;html=1;fontSize=20;fontColor=#4D4D4D;" parent="1" vertex="1">
          <mxGeometry x="103.5" y="69" width="960" height="10" as="geometry" />
        </mxCell>
        <mxCell id="5Y_TLcKwmcfd6Oil7Y43-15" style="edgeStyle=orthogonalEdgeStyle;rounded=0;orthogonalLoop=1;jettySize=auto;html=1;exitX=1;exitY=0.5;exitDx=0;exitDy=0;entryX=0;entryY=0.5;entryDx=0;entryDy=0;" edge="1" parent="1" source="5Y_TLcKwmcfd6Oil7Y43-1" target="3ne1QswCM8ZiEu4GHsYG-8">
          <mxGeometry relative="1" as="geometry" />
        </mxCell>
        <mxCell id="5Y_TLcKwmcfd6Oil7Y43-19" style="edgeStyle=orthogonalEdgeStyle;rounded=0;orthogonalLoop=1;jettySize=auto;html=1;exitX=1;exitY=0.5;exitDx=0;exitDy=0;entryX=0;entryY=0.5;entryDx=0;entryDy=0;" edge="1" parent="1" source="5Y_TLcKwmcfd6Oil7Y43-1" target="5Y_TLcKwmcfd6Oil7Y43-6">
          <mxGeometry relative="1" as="geometry" />
        </mxCell>
        <mxCell id="5Y_TLcKwmcfd6Oil7Y43-1" value="Gravação dados &#xa;nas tabelas " style="shape=image;verticalLabelPosition=bottom;verticalAlign=top;aspect=fixed;image=data:image/svg+xml,PHN2ZyB4bWxucz0iaHR0cDovL3d3dy53My5vcmcvMjAwMC9zdmciIHhtbG5zOnhsaW5rPSJodHRwOi8vd3d3LnczLm9yZy8xOTk5L3hsaW5rIiB2ZXJzaW9uPSIxLjEiIGlkPSJMYXllcl8xIiB4PSIwcHgiIHk9IjBweCIgd2lkdGg9IjQ4cHgiIGhlaWdodD0iNDhweCIgdmlld0JveD0iMCAwIDQ4IDQ4IiBlbmFibGUtYmFja2dyb3VuZD0ibmV3IDAgMCA0OCA0OCIgeG1sOnNwYWNlPSJwcmVzZXJ2ZSI+JiN4YTs8ZyBpZD0iY29sb3JfNDFfIj4mI3hhOwk8Zz4mI3hhOwkJPHBhdGggZmlsbD0iIzg5OENDNSIgZD0iTTQ0LDdIN0M2LjQ0Nyw3LDYsNy40NDcsNiw4djM0YzAsMC41NTMsMC40NDcsMSwxLDFoMzdjMC41NTMsMCwxLTAuNDQ3LDEtMVY4QzQ1LDcuNDQ3LDQ0LjU1Myw3LDQ0LDd6ICAgICBNMzYsMjNoLTR2MTNjMCwwLjU1My0wLjQ0NywxLTEsMUgyMWMtMC41NTMsMC0xLTAuNDQ3LTEtMVYyM2gtNGMtMC41NTMsMC0xLTAuNDQ3LTEtMWMwLTAuMjc2LDAuMTExLTAuNTI2LDAuMjkzLTAuNzA3bDEwLTEwICAgIEMyNS40NzQsMTEuMTEyLDI1LjcyNCwxMSwyNiwxMWMwLjI3NSwwLDAuNTI2LDAuMTEyLDAuNzA3LDAuMjkzbDEwLDEwQzM2Ljg4OSwyMS40NzQsMzcsMjEuNzI0LDM3LDIyQzM3LDIyLjU1MywzNi41NTMsMjMsMzYsMjN6ICAgICIvPiYjeGE7CTwvZz4mI3hhOzwvZz4mI3hhOzxnIGlkPSJvdXRsaW5lXzM5XyI+JiN4YTsJPGc+JiN4YTsJCTxwYXRoIGZpbGw9IiMzODRENjgiIGQ9Ik0xNCwyMGg0djE0YzAsMC41NTMsMC40NDcsMSwxLDFoMTBjMC41NTMsMCwxLTAuNDQ3LDEtMVYyMGg0YzAuNTUzLDAsMS0wLjQ0NywxLTEgICAgYzAtMC4yNzYtMC4xMTEtMC41MjYtMC4yOTMtMC43MDdsLTEwLTEwQzI0LjUyNiw4LjExMiwyNC4yNzUsOCwyNCw4Yy0wLjI3NiwwLTAuNTI2LDAuMTEyLTAuNzA3LDAuMjkzbC0xMCwxMCAgICBDMTMuMTExLDE4LjQ3NCwxMywxOC43MjQsMTMsMTlDMTMsMTkuNTUzLDEzLjQ0NywyMCwxNCwyMHogTTI0LDEwLjQxNEwzMS41ODYsMThIMjh2MTVoLThWMThoLTMuNTg2TDI0LDEwLjQxNHogTTE0LDM5aDIwICAgIGMwLjU1MywwLDEtMC40NDcsMS0xcy0wLjQ0Ny0xLTEtMUgxNGMtMC41NTMsMC0xLDAuNDQ3LTEsMVMxMy40NDcsMzksMTQsMzl6IE00NSw0SDNDMi40NDcsNCwyLDQuNDQ3LDIsNXYzOGMwLDAuNTUzLDAuNDQ3LDEsMSwxICAgIGg0MmMwLjU1MywwLDEtMC40NDcsMS0xVjVDNDYsNC40NDcsNDUuNTUzLDQsNDUsNHogTTQ0LDQySDRWNmg0MFY0MnoiLz4mI3hhOwk8L2c+JiN4YTs8L2c+JiN4YTs8L3N2Zz4=" vertex="1" parent="1">
          <mxGeometry x="387" y="335" width="48" height="48" as="geometry" />
        </mxCell>
        <mxCell id="5Y_TLcKwmcfd6Oil7Y43-26" style="edgeStyle=orthogonalEdgeStyle;rounded=0;orthogonalLoop=1;jettySize=auto;html=1;exitX=1;exitY=0.5;exitDx=0;exitDy=0;" edge="1" parent="1" source="5Y_TLcKwmcfd6Oil7Y43-3" target="5Y_TLcKwmcfd6Oil7Y43-5">
          <mxGeometry relative="1" as="geometry" />
        </mxCell>
        <mxCell id="5Y_TLcKwmcfd6Oil7Y43-3" value="Relatório &#xa;.csv é gerado" style="shape=image;verticalLabelPosition=bottom;verticalAlign=top;aspect=fixed;image=data:image/svg+xml,PHN2ZyB4bWxucz0iaHR0cDovL3d3dy53My5vcmcvMjAwMC9zdmciIHhtbG5zOnhsaW5rPSJodHRwOi8vd3d3LnczLm9yZy8xOTk5L3hsaW5rIiB2ZXJzaW9uPSIxLjEiIGlkPSJMYXllcl8xIiB4PSIwcHgiIHk9IjBweCIgd2lkdGg9IjQ4cHgiIGhlaWdodD0iNDhweCIgdmlld0JveD0iMCAwIDQ4IDQ4IiBlbmFibGUtYmFja2dyb3VuZD0ibmV3IDAgMCA0OCA0OCIgeG1sOnNwYWNlPSJwcmVzZXJ2ZSI+JiN4YTs8ZyBpZD0iY29sb3JfMjhfIj4mI3hhOwk8Zz4mI3hhOwkJPHBhdGggZmlsbC1ydWxlPSJldmVub2RkIiBjbGlwLXJ1bGU9ImV2ZW5vZGQiIGZpbGw9IiNGMTYzNjIiIGQ9Ik00NCwzOEgzM1Y3YzAtMC41NTMtMC40NDctMS0xLTFIN0M2LjQ0Nyw2LDYsNi40NDcsNiw3djMyICAgIGMwLDMuNjY3LDEuOTM4LDUuNzUxLDUuNDM1LDUuOTU5QzEzLjk5Miw0NC41NDgsMTYsNDAuNjE1LDE2LDM4aDJjMCwzLjY2Ny0yLjgyLDYuNjctNi40MSw2Ljk3QzExLjcyOSw0NC45NzYsMTEuODU1LDQ1LDEyLDQ1aDI3ICAgIGMyLjg2NiwwLDYtMi4xMzQsNi01di0xQzQ1LDM4LjQ0Nyw0NC41NTMsMzgsNDQsMzh6Ii8+JiN4YTsJPC9nPiYjeGE7PC9nPiYjeGE7PGcgaWQ9Im91dGxpbmVfMjdfIj4mI3hhOwk8Zz4mI3hhOwkJPHBhdGggZmlsbD0iIzM4NEQ2OCIgZD0iTTIwLDE4SDljLTAuNTUzLDAtMSwwLjQ0Ny0xLDFzMC40NDcsMSwxLDFoMTFjMC41NTMsMCwxLTAuNDQ3LDEtMVMyMC41NTMsMTgsMjAsMTh6IE0yMCwyMkg5ICAgIGMtMC41NTMsMC0xLDAuNDQ3LTEsMXMwLjQ0NywxLDEsMWgxMWMwLjU1MywwLDEtMC40NDcsMS0xUzIwLjU1MywyMiwyMCwyMnogTTQ1LDM3SDM0VjNjMC0wLjU1My0wLjQ0Ny0xLTEtMUgzICAgIEMyLjQ0NywyLDIsMi40NDcsMiwzdjM2YzAsMy44NjYsMy4xMzQsNyw3LDdoMzBjMy44NjYsMCw3LTMuMTM0LDctN3YtMUM0NiwzNy40NDcsNDUuNTUzLDM3LDQ1LDM3eiBNOSw0NGMtMi43NjIsMC01LTIuMjM4LTUtNVY0ICAgIGgyOHYzM0gxNWMtMC41NTMsMC0xLDAuNDQ3LTEsMXYxQzE0LDQxLjc2MiwxMS43NjIsNDQsOSw0NHogTTM5LDQ0SDEzLjg5NUMxNS4xOTIsNDIuNzI5LDE2LDQwLjk2LDE2LDM5aDI4ICAgIEM0NCw0MS43NjIsNDEuNzYyLDQ0LDM5LDQ0eiBNMzAsMTNWN2MwLTAuNTUzLTAuNDQ3LTEtMS0xSDdDNi40NDcsNiw2LDYuNDQ3LDYsN3Y2YzAsMC41NTMsMC40NDcsMSwxLDFoMjIgICAgQzI5LjU1MywxNCwzMCwxMy41NTMsMzAsMTN6IE0xNywxMWMwLDAuNTUzLTAuNDQ3LDEtMSwxSDhWOGg4YzAuNTUzLDAsMSwwLjQ0NywxLDFWMTF6IE0yOCwxMmgtOGMtMC41NTMsMC0xLTAuNDQ3LTEtMVY5ICAgIGMwLTAuNTUzLDAuNDQ3LTEsMS0xaDhWMTJ6IE0xNiwyN2MwLTAuNTUzLTAuNDQ3LTEtMS0xSDljLTAuNTUzLDAtMSwwLjQ0Ny0xLDFzMC40NDcsMSwxLDFoNkMxNS41NTMsMjgsMTYsMjcuNTUzLDE2LDI3eiIvPiYjeGE7CTwvZz4mI3hhOzwvZz4mI3hhOzwvc3ZnPg==" vertex="1" parent="1">
          <mxGeometry x="837" y="258" width="48" height="48" as="geometry" />
        </mxCell>
        <mxCell id="5Y_TLcKwmcfd6Oil7Y43-4" value="" style="shape=image;verticalLabelPosition=bottom;verticalAlign=top;aspect=fixed;image=data:image/svg+xml,PHN2ZyB4bWxucz0iaHR0cDovL3d3dy53My5vcmcvMjAwMC9zdmciIHhtbG5zOnhsaW5rPSJodHRwOi8vd3d3LnczLm9yZy8xOTk5L3hsaW5rIiB2ZXJzaW9uPSIxLjEiIGlkPSJMYXllcl8xIiB4PSIwcHgiIHk9IjBweCIgd2lkdGg9IjQ4cHgiIGhlaWdodD0iNDhweCIgdmlld0JveD0iMCAwIDQ4IDQ4IiBlbmFibGUtYmFja2dyb3VuZD0ibmV3IDAgMCA0OCA0OCIgeG1sOnNwYWNlPSJwcmVzZXJ2ZSI+JiN4YTs8ZyBpZD0iY29sb3JfMTZfIj4mI3hhOwk8Zz4mI3hhOwkJPHBhdGggZmlsbD0iI0ZGREE4RSIgZD0iTTE2LjAzNCw2LjEwOUMxNi4wNTcsNi4yMzcsMTYuMDgyLDYuMjcxLDE2LjAzNCw2LjEwOUwxNi4wMzQsNi4xMDl6IE0zNy45NjYsNi4xMDkgICAgQzM3LjkxOCw2LjI3MSwzNy45NDMsNi4yMzcsMzcuOTY2LDYuMTA5TDM3Ljk2Niw2LjEwOXogTTM3LDVIMTdjLTEuMDI2LDAtMS4wMTksMC43ODYtMC45NjgsMS4wOTYgICAgQzE2LjI3Miw2LjgxNywxNy45MDgsMTEuNzI4LDE4LDEydjEwYzAsNC42MDMsNC40NDQsOCw5LDhzOS0zLjM5Nyw5LThWMTJsMS45NjgtNS45MDRDMzguMDE5LDUuNzg2LDM4LjAyNiw1LDM3LDV6IE0zNy45NjgsNi4wOTYgICAgYy0wLjAwMSwwLjAwNS0wLjAwMSwwLjAwOS0wLjAwMiwwLjAxNEMzNy45NzUsNi4wNzksMzcuOTg1LDYuMDQ1LDM4LDZMMzcuOTY4LDYuMDk2eiBNMTYuMDM0LDYuMTA5ICAgIGMtMC4wMDEtMC4wMDQtMC4wMDEtMC4wMDktMC4wMDItMC4wMTNDMTYuMDEzLDYuMDM5LDE2LDYsMTYsNkMxNi4wMTUsNi4wNDUsMTYuMDI1LDYuMDc5LDE2LjAzNCw2LjEwOXoiLz4mI3hhOwk8L2c+JiN4YTs8L2c+JiN4YTs8ZyBpZD0ib3V0bGluZV8zMV8iPiYjeGE7CTxnPiYjeGE7CQk8cGF0aCBmaWxsLXJ1bGU9ImV2ZW5vZGQiIGNsaXAtcnVsZT0iZXZlbm9kZCIgZmlsbD0iIzM4NEQ2OCIgZD0iTTEyLjEwMywzLjQ3MWwtMC4wNTItMC4xNTVsMC4wMDUtMC4wMDIgICAgQzEyLjA4LDMuMzg5LDEyLjA5NCwzLjQzNiwxMi4xMDMsMy40NzFsMS45NDgsNS44NDVsMC4wMDUtMC4wMDJjMC4wODUsMC4yNTUsMC4yNzIsMC40NTQsMC41MDksMC41NzIgICAgQzE0LjIwMywxMC44NTYsMTQsMTEuOTAzLDE0LDEzdjdjMCw0Ljk3MSw1LjAyOSw5LDEwLDlzMTAtNC4wMjksMTAtOXYtN2MwLTEuMDU0LTAuMTg5LTIuMDYyLTAuNTI0LTNINDFjMC41NTMsMCwxLTAuNDQ3LDEtMSAgICBzLTAuNDQ3LTEtMS0xaC02LjYxM2wxLjUxMS00LjUyOWMwLjAwOS0wLjAzNiwwLjAyMi0wLjA4MywwLjA0Ny0wLjE1NmwwLjAwNSwwLjAwMmwtMC4wNTIsMC4xNTRDMzUuNzk3LDMuODc2LDM2LjU3MywyLDM1LDJIMTMgICAgQzExLjQyNiwyLDEyLjIwMiwzLjg3NSwxMi4xMDMsMy40NzF6IE0zMiwyMGMwLDMuODY2LTQuMTM0LDctOCw3cy04LTMuMTM0LTgtN3YtN2MwLTEuMDc3LDAuMjU0LTIuMDkxLDAuNjktM2gxNC42MTggICAgQzMxLjc0NiwxMC45MDksMzIsMTEuOTIzLDMyLDEzVjIweiBNMzMuNjEzLDRsLTEuMzM0LDRIMTUuNzIxbC0xLjMzNC00SDMzLjYxM3ogTTM2LDMzSDEyQzYuNDc3LDMzLDIsMzcuNDc4LDIsNDN2MiAgICBjMCwwLjU1MywwLjQ0NywxLDEsMXMxLTAuNDQ3LDEtMXYtMmMwLTQuNDE4LDMuNTgyLTgsOC04aDI0YzQuNDE4LDAsOCwzLjU4Miw4LDh2MmMwLDAuNTUzLDAuNDQ3LDEsMSwxczEtMC40NDcsMS0xdi0yICAgIEM0NiwzNy40NzgsNDEuNTIzLDMzLDM2LDMzeiBNMjQsMjFjMC41NTMsMCwxLTAuNDQ3LDEtMXYtNGMwLTAuNTUzLTAuNDQ3LTEtMS0xcy0xLDAuNDQ3LTEsMXY0QzIzLDIwLjU1MywyMy40NDcsMjEsMjQsMjF6ICAgICBNMjgsMTNjLTAuNTUzLDAtMSwwLjQ0Ny0xLDFzMC40NDcsMSwxLDFzMS0wLjQ0NywxLTFTMjguNTUzLDEzLDI4LDEzeiBNMjAsMTVjMC41NTMsMCwxLTAuNDQ3LDEtMXMtMC40NDctMS0xLTFzLTEsMC40NDctMSwxICAgIFMxOS40NDcsMTUsMjAsMTV6IE0yOCwyMWMtMC4yODUsMC0wLjUzOSwwLjEyMy0wLjcyMiwwLjMxNEMyNi41NDksMjIuMDM3LDI1LjA5NiwyMywyNCwyM2MtMS4xMDQsMC0yLjU3My0xLjAxLTMuMjk3LTEuNzM0ICAgIGMwLDAtMC4xNzgtMC4yNjYtMC43MDMtMC4yNjZjLTAuNTUzLDAtMSwwLjQ0Ny0xLDFjMCwwLjMxNiwwLjE1NiwwLjU4NywwLjM4NiwwLjc3QzIwLjQ4OCwyMy44MzMsMjIuMzg5LDI1LDI0LDI1ICAgIGMxLjY1NiwwLDMuNjI1LTEuMjAzLDQuNzExLTIuMjg5bC0wLjAwNC0wLjAwNEMyOC44ODksMjIuNTI2LDI5LDIyLjI3NiwyOSwyMkMyOSwyMS40NDcsMjguNTUzLDIxLDI4LDIxeiIvPiYjeGE7CTwvZz4mI3hhOzwvZz4mI3hhOzwvc3ZnPg==" vertex="1" parent="1">
          <mxGeometry x="23.5" y="287" width="48" height="48" as="geometry" />
        </mxCell>
        <mxCell id="5Y_TLcKwmcfd6Oil7Y43-36" style="edgeStyle=orthogonalEdgeStyle;rounded=0;orthogonalLoop=1;jettySize=auto;html=1;exitX=1;exitY=0.5;exitDx=0;exitDy=0;entryX=0;entryY=0.5;entryDx=0;entryDy=0;" edge="1" parent="1" source="5Y_TLcKwmcfd6Oil7Y43-5" target="5Y_TLcKwmcfd6Oil7Y43-32">
          <mxGeometry relative="1" as="geometry" />
        </mxCell>
        <mxCell id="5Y_TLcKwmcfd6Oil7Y43-5" value="Documento é &#xa;criptografado" style="shape=image;verticalLabelPosition=bottom;verticalAlign=top;aspect=fixed;image=data:image/svg+xml,PHN2ZyB4bWxucz0iaHR0cDovL3d3dy53My5vcmcvMjAwMC9zdmciIHhtbG5zOnhsaW5rPSJodHRwOi8vd3d3LnczLm9yZy8xOTk5L3hsaW5rIiB2ZXJzaW9uPSIxLjEiIGlkPSJMYXllcl8xIiB4PSIwcHgiIHk9IjBweCIgd2lkdGg9IjQ4cHgiIGhlaWdodD0iNDhweCIgdmlld0JveD0iMCAwIDQ4IDQ4IiBlbmFibGUtYmFja2dyb3VuZD0ibmV3IDAgMCA0OCA0OCIgeG1sOnNwYWNlPSJwcmVzZXJ2ZSI+JiN4YTs8ZyBpZD0iY29sb3JfNjBfIj4mI3hhOwk8Zz4mI3hhOwkJPHBhdGggZmlsbD0iI0ZGREE4RSIgZD0iTTQ0LjM2OSw0MC43MDJsLTIuMDYyLTMuMzk0Yy0wLjI4NS0wLjQ2OS0wLjkwOS0wLjYzMy0xLjM5NC0wLjM2N2wtMi42MzMsMS40NDNsLTEuMDMxLTEuNjk3bDIuNjMzLTEuNDQzICAgIGMwLjQ4NC0wLjI2NiwwLjY0Ni0wLjg2MSwwLjM2Mi0xLjMyOWwtMi4wNjMtMy4zOTRjLTAuMjg1LTAuNDY5LTAuOTA5LTAuNjM0LTEuMzk0LTAuMzY4bC0yLjYzMywxLjQ0M2wtNS43OTgtOS41NCAgICBjMS45MzktMi4xMzIsMy4xMzItNC45NTUsMy4xMzItOC4wNjRjMC02LjYyNy01LjM3My0xMi0xMi0xMnMtMTIsNS4zNzMtMTIsMTJzNS4zNzMsMTIsMTIsMTJjMS4zNDgsMCwyLjY0MS0wLjIzMiwzLjg1LTAuNjQzICAgIGwxMi4yNTQsMjAuMTYzYzAuMjg0LDAuNDY5LDAuOTA4LDAuNjMzLDEuMzkzLDAuMzY3bDcuMDIxLTMuODQ5QzQ0LjQ5Miw0MS43NjYsNDQuNjU0LDQxLjE3MSw0NC4zNjksNDAuNzAyeiIvPiYjeGE7CTwvZz4mI3hhOzwvZz4mI3hhOzxnIGlkPSJvdXRsaW5lXzU4XyI+JiN4YTsJPGc+JiN4YTsJCTxwYXRoIGZpbGw9IiMzODRENjgiIGQ9Ik00MC4zNjksNDAuNzAybC0yLjA2Mi0zLjM5NGMtMC4yODUtMC40NjktMC45MDktMC42MzMtMS4zOTQtMC4zNjdsLTIuNjMzLDEuNDQzbC0xLjAzMS0xLjY5N2wyLjYzMy0xLjQ0MyAgICBjMC40ODQtMC4yNjYsMC42NDYtMC44NjEsMC4zNjItMS4zMjlsLTIuMDYzLTMuMzk0Yy0wLjI4NS0wLjQ2OS0wLjkwOS0wLjYzNC0xLjM5NC0wLjM2OGwtMi42MzMsMS40NDNsLTUuNzk4LTkuNTQgICAgYzEuOTM5LTIuMTMyLDMuMTMyLTQuOTU1LDMuMTMyLTguMDY0YzAtNi42MjctNS4zNzMtMTItMTItMTJzLTEyLDUuMzczLTEyLDEyczUuMzczLDEyLDEyLDEyYzEuMzQ4LDAsMi42NDEtMC4yMzIsMy44NS0wLjY0MyAgICBsMTIuMjU0LDIwLjE2M2MwLjI4NCwwLjQ2OSwwLjkwOCwwLjYzMywxLjM5MywwLjM2N2w3LjAyMS0zLjg0OUM0MC40OTIsNDEuNzY2LDQwLjY1NCw0MS4xNzEsNDAuMzY5LDQwLjcwMnogTTMyLjgzMyw0My43MDIgICAgTDIwLjEzMSwyMi44NDZjLTEuMzg3LDAuNzI5LTIuOTY1LDEuMTQ2LTQuNjQxLDEuMTQ2Yy01LjUyMywwLTEwLTQuNDc4LTEwLTEwczQuNDc3LTEwLDEwLTEwczEwLDQuNDc4LDEwLDEwICAgIGMwLDMuMTI4LTEuNDM4LDUuOTE5LTMuNjg4LDcuNzUzbDcuMTE0LDExLjY2MmMwLjI4NCwwLjQ2OSwwLjkwOCwwLjYzMywxLjM5MywwLjM2N2wyLjYzMy0xLjQ0MmwxLjAzMSwxLjY5NmwtMi42MzMsMS40NDMgICAgYy0wLjQ4NCwwLjI2Ni0wLjY0NiwwLjg2LTAuMzYxLDEuMzI5bDIuMDYzLDMuMzk1YzAuMjg0LDAuNDY4LDAuOTA4LDAuNjMzLDEuMzkzLDAuMzY3bDIuNjMzLTEuNDQzbDEuMDMxLDEuNjk3TDMyLjgzMyw0My43MDJ6ICAgICBNMTUuNDksNS45OTJjLTQuNDE4LDAtOCwzLjU4Mi04LDhzMy41ODIsOCw4LDhzOC0zLjU4Miw4LThTMTkuOTA4LDUuOTkyLDE1LjQ5LDUuOTkyeiBNMTUuNDksMTkuOTkyYy0zLjMxNCwwLTYtMi42ODctNi02ICAgIHMyLjY4Ni02LDYtNmMzLjMxMywwLDYsMi42ODcsNiw2UzE4LjgwNCwxOS45OTIsMTUuNDksMTkuOTkyeiIvPiYjeGE7CTwvZz4mI3hhOzwvZz4mI3hhOzwvc3ZnPg==" vertex="1" parent="1">
          <mxGeometry x="977" y="258" width="48" height="48" as="geometry" />
        </mxCell>
        <mxCell id="5Y_TLcKwmcfd6Oil7Y43-6" value="Adm consulta &#xa;os dados&#xa;" style="shape=image;verticalLabelPosition=bottom;verticalAlign=top;aspect=fixed;image=data:image/svg+xml,PHN2ZyB4bWxucz0iaHR0cDovL3d3dy53My5vcmcvMjAwMC9zdmciIHhtbG5zOnhsaW5rPSJodHRwOi8vd3d3LnczLm9yZy8xOTk5L3hsaW5rIiB2ZXJzaW9uPSIxLjEiIGlkPSJMYXllcl8xIiB4PSIwcHgiIHk9IjBweCIgd2lkdGg9IjQ4cHgiIGhlaWdodD0iNDhweCIgdmlld0JveD0iMCAwIDQ4IDQ4IiBlbmFibGUtYmFja2dyb3VuZD0ibmV3IDAgMCA0OCA0OCIgeG1sOnNwYWNlPSJwcmVzZXJ2ZSI+JiN4YTs8ZyBpZD0iY29sb3JfMTZfIj4mI3hhOwk8Zz4mI3hhOwkJPHBhdGggZmlsbD0iI0ZGREE4RSIgZD0iTTE2LjAzNCw2LjEwOUMxNi4wNTcsNi4yMzcsMTYuMDgyLDYuMjcxLDE2LjAzNCw2LjEwOUwxNi4wMzQsNi4xMDl6IE0zNy45NjYsNi4xMDkgICAgQzM3LjkxOCw2LjI3MSwzNy45NDMsNi4yMzcsMzcuOTY2LDYuMTA5TDM3Ljk2Niw2LjEwOXogTTM3LDVIMTdjLTEuMDI2LDAtMS4wMTksMC43ODYtMC45NjgsMS4wOTYgICAgQzE2LjI3Miw2LjgxNywxNy45MDgsMTEuNzI4LDE4LDEydjEwYzAsNC42MDMsNC40NDQsOCw5LDhzOS0zLjM5Nyw5LThWMTJsMS45NjgtNS45MDRDMzguMDE5LDUuNzg2LDM4LjAyNiw1LDM3LDV6IE0zNy45NjgsNi4wOTYgICAgYy0wLjAwMSwwLjAwNS0wLjAwMSwwLjAwOS0wLjAwMiwwLjAxNEMzNy45NzUsNi4wNzksMzcuOTg1LDYuMDQ1LDM4LDZMMzcuOTY4LDYuMDk2eiBNMTYuMDM0LDYuMTA5ICAgIGMtMC4wMDEtMC4wMDQtMC4wMDEtMC4wMDktMC4wMDItMC4wMTNDMTYuMDEzLDYuMDM5LDE2LDYsMTYsNkMxNi4wMTUsNi4wNDUsMTYuMDI1LDYuMDc5LDE2LjAzNCw2LjEwOXoiLz4mI3hhOwk8L2c+JiN4YTs8L2c+JiN4YTs8ZyBpZD0ib3V0bGluZV8zMV8iPiYjeGE7CTxnPiYjeGE7CQk8cGF0aCBmaWxsLXJ1bGU9ImV2ZW5vZGQiIGNsaXAtcnVsZT0iZXZlbm9kZCIgZmlsbD0iIzM4NEQ2OCIgZD0iTTEyLjEwMywzLjQ3MWwtMC4wNTItMC4xNTVsMC4wMDUtMC4wMDIgICAgQzEyLjA4LDMuMzg5LDEyLjA5NCwzLjQzNiwxMi4xMDMsMy40NzFsMS45NDgsNS44NDVsMC4wMDUtMC4wMDJjMC4wODUsMC4yNTUsMC4yNzIsMC40NTQsMC41MDksMC41NzIgICAgQzE0LjIwMywxMC44NTYsMTQsMTEuOTAzLDE0LDEzdjdjMCw0Ljk3MSw1LjAyOSw5LDEwLDlzMTAtNC4wMjksMTAtOXYtN2MwLTEuMDU0LTAuMTg5LTIuMDYyLTAuNTI0LTNINDFjMC41NTMsMCwxLTAuNDQ3LDEtMSAgICBzLTAuNDQ3LTEtMS0xaC02LjYxM2wxLjUxMS00LjUyOWMwLjAwOS0wLjAzNiwwLjAyMi0wLjA4MywwLjA0Ny0wLjE1NmwwLjAwNSwwLjAwMmwtMC4wNTIsMC4xNTRDMzUuNzk3LDMuODc2LDM2LjU3MywyLDM1LDJIMTMgICAgQzExLjQyNiwyLDEyLjIwMiwzLjg3NSwxMi4xMDMsMy40NzF6IE0zMiwyMGMwLDMuODY2LTQuMTM0LDctOCw3cy04LTMuMTM0LTgtN3YtN2MwLTEuMDc3LDAuMjU0LTIuMDkxLDAuNjktM2gxNC42MTggICAgQzMxLjc0NiwxMC45MDksMzIsMTEuOTIzLDMyLDEzVjIweiBNMzMuNjEzLDRsLTEuMzM0LDRIMTUuNzIxbC0xLjMzNC00SDMzLjYxM3ogTTM2LDMzSDEyQzYuNDc3LDMzLDIsMzcuNDc4LDIsNDN2MiAgICBjMCwwLjU1MywwLjQ0NywxLDEsMXMxLTAuNDQ3LDEtMXYtMmMwLTQuNDE4LDMuNTgyLTgsOC04aDI0YzQuNDE4LDAsOCwzLjU4Miw4LDh2MmMwLDAuNTUzLDAuNDQ3LDEsMSwxczEtMC40NDcsMS0xdi0yICAgIEM0NiwzNy40NzgsNDEuNTIzLDMzLDM2LDMzeiBNMjQsMjFjMC41NTMsMCwxLTAuNDQ3LDEtMXYtNGMwLTAuNTUzLTAuNDQ3LTEtMS0xcy0xLDAuNDQ3LTEsMXY0QzIzLDIwLjU1MywyMy40NDcsMjEsMjQsMjF6ICAgICBNMjgsMTNjLTAuNTUzLDAtMSwwLjQ0Ny0xLDFzMC40NDcsMSwxLDFzMS0wLjQ0NywxLTFTMjguNTUzLDEzLDI4LDEzeiBNMjAsMTVjMC41NTMsMCwxLTAuNDQ3LDEtMXMtMC40NDctMS0xLTFzLTEsMC40NDctMSwxICAgIFMxOS40NDcsMTUsMjAsMTV6IE0yOCwyMWMtMC4yODUsMC0wLjUzOSwwLjEyMy0wLjcyMiwwLjMxNEMyNi41NDksMjIuMDM3LDI1LjA5NiwyMywyNCwyM2MtMS4xMDQsMC0yLjU3My0xLjAxLTMuMjk3LTEuNzM0ICAgIGMwLDAtMC4xNzgtMC4yNjYtMC43MDMtMC4yNjZjLTAuNTUzLDAtMSwwLjQ0Ny0xLDFjMCwwLjMxNiwwLjE1NiwwLjU4NywwLjM4NiwwLjc3QzIwLjQ4OCwyMy44MzMsMjIuMzg5LDI1LDI0LDI1ICAgIGMxLjY1NiwwLDMuNjI1LTEuMjAzLDQuNzExLTIuMjg5bC0wLjAwNC0wLjAwNEMyOC44ODksMjIuNTI2LDI5LDIyLjI3NiwyOSwyMkMyOSwyMS40NDcsMjguNTUzLDIxLDI4LDIxeiIvPiYjeGE7CTwvZz4mI3hhOzwvZz4mI3hhOzwvc3ZnPg==" vertex="1" parent="1">
          <mxGeometry x="577" y="412" width="48" height="48" as="geometry" />
        </mxCell>
        <mxCell id="5Y_TLcKwmcfd6Oil7Y43-23" style="edgeStyle=orthogonalEdgeStyle;rounded=0;orthogonalLoop=1;jettySize=auto;html=1;exitX=1;exitY=0.5;exitDx=0;exitDy=0;" edge="1" parent="1" source="5Y_TLcKwmcfd6Oil7Y43-21" target="5Y_TLcKwmcfd6Oil7Y43-3">
          <mxGeometry relative="1" as="geometry" />
        </mxCell>
        <mxCell id="5Y_TLcKwmcfd6Oil7Y43-21" value="Manipulação e &#xa;tratamento de dados" style="shape=image;verticalLabelPosition=bottom;verticalAlign=top;aspect=fixed;image=data:image/svg+xml,PHN2ZyB4bWxucz0iaHR0cDovL3d3dy53My5vcmcvMjAwMC9zdmciIHhtbG5zOnhsaW5rPSJodHRwOi8vd3d3LnczLm9yZy8xOTk5L3hsaW5rIiB2ZXJzaW9uPSIxLjEiIGlkPSJMYXllcl8xIiB4PSIwcHgiIHk9IjBweCIgd2lkdGg9IjQ4cHgiIGhlaWdodD0iNDhweCIgdmlld0JveD0iMCAwIDQ4IDQ4IiBlbmFibGUtYmFja2dyb3VuZD0ibmV3IDAgMCA0OCA0OCIgeG1sOnNwYWNlPSJwcmVzZXJ2ZSI+JiN4YTs8ZyBpZD0iY29sb3JfMjNfIj4mI3hhOwk8Zz4mI3hhOwkJPHBhdGggZmlsbD0iI0ZGREE4RSIgZD0iTTQxLDI5VjdjMC0wLjU1My0wLjQ0Ny0xLTEtMUgyNHY3YzAsMC41NTMtMC40NDcsMS0xLDFoLTNjLTAuNTUzLDAtMS0wLjQ0Ny0xLTFWNmgtNSAgICBjLTAuNTUzLDAtMSwwLjQ0Ny0xLDF2MjJjMCwwLjU1MywwLjQ0NywxLDEsMWgyNkM0MC41NTMsMzAsNDEsMjkuNTUzLDQxLDI5eiBNMTAuNSwzN0M5LjExOSwzNyw4LDM4LjExOSw4LDM5LjVTOS4xMTksNDIsMTAuNSw0MiAgICBzMi41LTEuMTE5LDIuNS0yLjVTMTEuODgxLDM3LDEwLjUsMzd6IE0yMC41LDM3Yy0xLjM4MSwwLTIuNSwxLjExOS0yLjUsMi41czEuMTE5LDIuNSwyLjUsMi41czIuNS0xLjExOSwyLjUtMi41ICAgIFMyMS44ODEsMzcsMjAuNSwzN3ogTTMwLjUsMzdjLTEuMzgxLDAtMi41LDEuMTE5LTIuNSwyLjVzMS4xMTksMi41LDIuNSwyLjVzMi41LTEuMTE5LDIuNS0yLjVTMzEuODgxLDM3LDMwLjUsMzd6IE00MC41LDM3ICAgIGMtMS4zODEsMC0yLjUsMS4xMTktMi41LDIuNXMxLjExOSwyLjUsMi41LDIuNXMyLjUtMS4xMTksMi41LTIuNVM0MS44ODEsMzcsNDAuNSwzN3oiLz4mI3hhOwk8L2c+JiN4YTs8L2c+JiN4YTs8ZyBpZD0ib3V0bGluZV8yMl8iPiYjeGE7CTxnPiYjeGE7CQk8cGF0aCBmaWxsLXJ1bGU9ImV2ZW5vZGQiIGNsaXAtcnVsZT0iZXZlbm9kZCIgZmlsbD0iIzM4NEQ2OCIgZD0iTTIyLDM4YzAtMS42NTctMS4zNDQtMy0zLTNzLTMsMS4zNDMtMywzczEuMzQ0LDMsMywzICAgIFMyMiwzOS42NTcsMjIsMzh6IE0xOCwzOGMwLTAuNTUzLDAuNDQ3LTEsMS0xczEsMC40NDcsMSwxcy0wLjQ0NywxLTEsMVMxOCwzOC41NTMsMTgsMzh6IE00MiwzOGMwLTEuNjU3LTEuMzQzLTMtMy0zICAgIHMtMywxLjM0My0zLDNzMS4zNDMsMywzLDNTNDIsMzkuNjU3LDQyLDM4eiBNMzgsMzhjMC0wLjU1MywwLjQ0Ny0xLDEtMXMxLDAuNDQ3LDEsMXMtMC40NDcsMS0xLDFTMzgsMzguNTUzLDM4LDM4eiBNMzIsMzggICAgYzAtMS42NTctMS4zNDMtMy0zLTNzLTMsMS4zNDMtMywzczEuMzQzLDMsMywzUzMyLDM5LjY1NywzMiwzOHogTTI4LDM4YzAtMC41NTMsMC40NDctMSwxLTFzMSwwLjQ0NywxLDFzLTAuNDQ3LDEtMSwxICAgIFMyOCwzOC41NTMsMjgsMzh6IE0xMiwzOGMwLTEuNjU3LTEuMzQ0LTMtMy0zcy0zLDEuMzQzLTMsM3MxLjM0NCwzLDMsM1MxMiwzOS42NTcsMTIsMzh6IE04LDM4YzAtMC41NTMsMC40NDctMSwxLTFzMSwwLjQ0NywxLDEgICAgcy0wLjQ0NywxLTEsMVM4LDM4LjU1Myw4LDM4eiBNMzksMzFIM2MtMC41NTMsMC0xLDAuNDQ3LTEsMXMwLjQ0NywxLDEsMWgzNmMyLjc2MiwwLDUsMi4yMzgsNSw1cy0yLjIzOCw1LTUsNUgzICAgIGMtMC41NTMsMC0xLDAuNDQ3LTEsMXMwLjQ0NywxLDEsMWgzNmMzLjg2NiwwLDctMy4xMzQsNy03UzQyLjg2NiwzMSwzOSwzMXogTTEwLDI5aDI4YzAuNTUzLDAsMS0wLjQ0NywxLTFWNGMwLTAuNTUzLTAuNDQ3LTEtMS0xICAgIEgxMEM5LjQ0NywzLDksMy40NDcsOSw0djI0QzksMjguNTUzLDkuNDQ3LDI5LDEwLDI5eiBNMjksNmMwLTAuNTUzLDAuNDQ3LTEsMS0xaDd2MjJoLTdjLTAuNTUzLDAtMS0wLjQ0Ny0xLTFWNnogTTE4LDVoMnY2aC0yVjV6ICAgICBNMTEsNWg1djdjMCwwLjU1MywwLjQ0NywxLDEsMWg0YzAuNTUzLDAsMS0wLjQ0NywxLTFWNWg0YzAuNTUzLDAsMSwwLjQ0NywxLDF2MjBjMCwwLjU1My0wLjQ0NywxLTEsMUgxMVY1eiIvPiYjeGE7CTwvZz4mI3hhOzwvZz4mI3hhOzwvc3ZnPg==" vertex="1" parent="1">
          <mxGeometry x="707" y="258.00000000000034" width="48" height="48" as="geometry" />
        </mxCell>
        <mxCell id="5Y_TLcKwmcfd6Oil7Y43-43" style="edgeStyle=orthogonalEdgeStyle;rounded=0;orthogonalLoop=1;jettySize=auto;html=1;exitX=1;exitY=0.5;exitDx=0;exitDy=0;" edge="1" parent="1" source="5Y_TLcKwmcfd6Oil7Y43-24" target="5Y_TLcKwmcfd6Oil7Y43-42">
          <mxGeometry relative="1" as="geometry" />
        </mxCell>
        <mxCell id="5Y_TLcKwmcfd6Oil7Y43-24" value="Documento &#xa;volta pra o &#xa;sistema&#xa;" style="shape=image;verticalLabelPosition=bottom;verticalAlign=top;aspect=fixed;image=data:image/svg+xml,PHN2ZyB4bWxucz0iaHR0cDovL3d3dy53My5vcmcvMjAwMC9zdmciIHhtbG5zOnhsaW5rPSJodHRwOi8vd3d3LnczLm9yZy8xOTk5L3hsaW5rIiB2ZXJzaW9uPSIxLjEiIGlkPSJMYXllcl8xIiB4PSIwcHgiIHk9IjBweCIgd2lkdGg9IjQ4cHgiIGhlaWdodD0iNDhweCIgdmlld0JveD0iMCAwIDQ4IDQ4IiBlbmFibGUtYmFja2dyb3VuZD0ibmV3IDAgMCA0OCA0OCIgeG1sOnNwYWNlPSJwcmVzZXJ2ZSI+JiN4YTs8ZyBpZD0iY29sb3JfMzFfIj4mI3hhOwk8Zz4mI3hhOwkJPHBhdGggZmlsbD0iI0YxNjM2MiIgZD0iTTQ1Ljc2OSwzMS45MDRsLTguODUzLTEzLjkxOGMtMC4yNzYtMC40ODEtMC44ODgtMC42NDYtMS4zNjYtMC4zNjhMMTQuODQsMjkuNjMxICAgIGMtMC40NzksMC4yNzgtMC42NDIsMC44OTUtMC4zNjYsMS4zNzZMMjMuMjUyLDQ1YzAuMjc2LDAuNDgxLDAuODg4LDAuNjQ2LDEuMzY2LDAuMzY4TDQ1LjQwMywzMy4yOCAgICBDNDUuODgxLDMzLjAwMiw0Ni4wNDUsMzIuMzg3LDQ1Ljc2OSwzMS45MDR6Ii8+JiN4YTsJPC9nPiYjeGE7PC9nPiYjeGE7PGcgaWQ9Im91dGxpbmVfMzBfIj4mI3hhOwk8Zz4mI3hhOwkJPHBhdGggZmlsbD0iIzM4NEQ2OCIgZD0iTTE5LjAxMSw0MC41MDRoLTE2Yy0wLjU1MiwwLTEsMC40NDMtMSwxczAuNDQ4LDEsMSwxaDE2YzAuNTUyLDAsMS0wLjQ0MywxLTFTMTkuNTYzLDQwLjUwNCwxOS4wMTEsNDAuNTA0ICAgIHogTTQuMDExLDM3LjUwNGMwLDAuNTU3LDAuNDQ4LDEsMSwxaDEyYzAuNTUyLDAsMS0wLjQ0MywxLTFzLTAuNDQ4LTEtMS0xaC0xMkM0LjQ1OCwzNi41MDQsNC4wMTEsMzYuOTQ3LDQuMDExLDM3LjUwNHogICAgIE03LjAxMSwzMi41MDRoLTRjLTAuNTUyLDAtMSwwLjQ0My0xLDFzMC40NDgsMSwxLDFoNGMwLjU1MiwwLDEtMC40NDMsMS0xUzcuNTYzLDMyLjUwNCw3LjAxMSwzMi41MDR6IE00NS44NzQsMjkuMzYxICAgIGwtNS4wNzUtOC42ODVjMC4xOTktMC4wNjMsMC4zOTEtMC4xNDUsMC41Ny0wLjI0NmMwLjQ4My0wLjI3NiwwLjg4My0wLjY2NywxLjE1LTEuMDMxYzAuNTU5LTAuNzYzLDAuNTc3LTEuNDY4LDAuNDk0LTEuOTI2ICAgIGMtMC4wMDgtMC4wNDUtMC4wMTgtMC4wOS0wLjAyOC0wLjEzNGMwLjA5OC0wLjA0NSwwLjItMC4wOTksMC4yOTEtMC4xNWMwLjg3NS0wLjUxLDEuNDc5LTEuNDEsMS41NzYtMi4zNTIgICAgYzAuMTI5LTEuMjYzLTAuNjA5LTIuNDA0LTEuNTMyLTMuMTQ3YzAuNTM1LTEuNDU5LDAuNjY1LTMuMDExLDAuMzg1LTQuNjI2Yy0wLjI1LTEuNDQ1LTAuOTE3LTMuOTUzLTIuNTYtNC41MDkgICAgYy0wLjI4NS0wLjA5Ny0wLjU5OC0wLjA3OS0wLjg0OSwwLjA5Yy0wLjI1MywwLjE1Mi0wLjQyNCwwLjQxMS0wLjQ2OCwwLjcwNmwtMC4wNjEsMC40NTJjLTAuMDkyLDAuNzE5LTAuMTI2LDAuOTg3LTAuNTU2LDEuNDYzICAgIGMtMC40MzUsMC40NzktMC45NTMsMC45NDgtMS41ODcsMS40MzRjLTEuMjksMC45ODQtMi42NDcsMS44ODYtNC4wMzcsMi42NzhjLTEuMzE2LDAuNzUxLTIuODA3LDEuNjAyLTMuNjY3LDMuMTIgICAgYy0wLjgxMSwxLjQzMi0wLjk1MywyLjkyMy0wLjQ3OCw0LjM3NmwtOS4wMDgsNS4xMzhjLTEuMDM2LTEuMTMzLTIuNDE1LTEuNzU3LTQuMDc0LTEuNzc4Yy0xLjc2Mi0wLjAyMy0zLjI1MywwLjgyNi00LjU2OSwxLjU3NyAgICBjLTEuMzg5LDAuNzkyLTIuODU4LDEuNTA0LTQuMzY2LDIuMTE0Yy0wLjc0MiwwLjMtMS40MTIsMC41MS0yLjA1LDAuNjQyYy0wLjYzMiwwLjEzLTAuODg1LDAuMDI0LTEuNTYxLTAuMjU2bC0wLjQyNy0wLjE3NCAgICBjLTAuMjgtMC4xMS0wLjU5Mi0wLjA5NC0wLjg1MywwLjA0N2MtMC4yNzMsMC4xMzEtMC40NDUsMC4zOS0wLjUwMywwLjY4MmMtMC4zMzQsMS42ODQsMS41MzEsMy41MDgsMi42NzIsNC40NDUgICAgYzEuMjc2LDEuMDQ3LDIuNzAxLDEuNzEyLDQuMjQ4LDEuOTgzYzAuMTksMS4xNjEsMC44MjEsMi4zNjMsMS45OTMsMi44ODRjMC44NzQsMC4zODksMS45NjUsMC4zMjIsMi44NS0wLjE3MiAgICBjMC4wOTEtMC4wNTEsMC4xODgtMC4xMTEsMC4yNzctMC4xNzNjMC4wMzMsMC4wMzEsMC4wNjgsMC4wNjIsMC4xMDMsMC4wOTFjMC4zNiwwLjMsMC45ODcsMC42MzcsMS45MzUsMC41NCAgICBjMC40NTMtMC4wNDYsMC45OTYtMC4xOTMsMS40NzktMC40NjljMC4xNzktMC4xMDMsMC4zNDYtMC4yMjYsMC41MDEtMC4zNjRsNS4wNzUsOC42ODVjMC4yNzksMC40NzcsMC44OTYsMC42NCwxLjM3OCwwLjM2NCAgICBsMjAuOTYzLTExLjk1N0M0NS45ODcsMzAuNDQ3LDQ2LjE1MiwyOS44MzgsNDUuODc0LDI5LjM2MXogTTMxLjY5OSwxMy41MzJjMC41OTItMS4wNDYsMS43NzktMS43MjMsMi45MjYtMi4zNzcgICAgYzEuNDY2LTAuODM2LDIuODk4LTEuNzg3LDQuMjU3LTIuODI1YzAuNzMxLTAuNTU5LDEuMzM3LTEuMTA3LDEuODUzLTEuNjc4YzAuMjUxLTAuMjc3LDAuNDM3LTAuNTQxLDAuNTc2LTAuNzk3ICAgIGMwLjE0OCwwLjQzLDAuMjg1LDAuOTQyLDAuMzg1LDEuNTE2YzAuMjU5LDEuNDk3LDAuMDY4LDIuOTE5LTAuNTY4LDQuMjI4Yy0wLjI0NCwwLjUwMS0wLjAzMiwxLjExMywwLjQ3NCwxLjM2OSAgICBjMC42MzUsMC4zMjEsMS4yODIsMS4wMzEsMS4yMjIsMS42MmMtMC4wMzIsMC4zMDgtMC4yNzMsMC42NDMtMC42MDEsMC44MzRjLTAuMTE3LDAuMDU0LTAuNDI3LDAuMjE5LTAuNzA3LDAuMTAxICAgIGMtMC40ODYtMC4yMDUtMS4wMzktMC4wMTMtMS4yODMsMC40NDRjLTAuMjQzLDAuNDU4LTAuMDk3LDEuMDMzLDAuMzM5LDEuMzMxYzAuMjQ3LDAuMTY5LDAuNDEsMC4zNTUsMC40MzYsMC40OTkgICAgYzAuMDIyLDAuMTItMC4wNjUsMC4yNy0wLjE0MSwwLjM3NGMtMC4yMjUsMC4zMDctMC41ODQsMC41NjUtMC44MTcsMC41ODdjLTAuMDQ3LDAuMDA1LTAuMDY5LDAuMDAyLTAuMTIxLTAuMDQ0ICAgIGMtMC4xMi0wLjEwNi0wLjI1OC0wLjE3Mi0wLjQwMi0wLjIxNGwtMi43My00LjY3MWMtMC4yNzgtMC40NzctMC44OTUtMC42NC0xLjM3Ny0wLjM2NWwtNC4xNTMsMi4zNjkgICAgQzMxLjEyNywxNS4wNzQsMzEuMjUxLDE0LjMyMiwzMS42OTksMTMuNTMyeiBNMTYuODAzLDMxLjkwNGMwLjAxNSwwLjA2NiwwLjAwNSwwLjA4OC0wLjAyMiwwLjEyNSAgICBjLTAuMTM2LDAuMTg5LTAuNTQyLDAuMzY3LTAuOTIzLDAuNDA2Yy0wLjEyOSwwLjAxMy0wLjMwNCwwLjAxMy0wLjM5OS0wLjA2NmMtMC4xMTItMC4wOTQtMC4xOTQtMC4zMjctMC4yMTktMC42MjMgICAgYy0wLjA0NC0wLjUyMS0wLjQ3NS0wLjkzNS0wLjk5OC0wLjk1NWMtMC41MjItMC4wMi0wLjk2OCwwLjM1Ny0xLjAzMSwwLjg3NWMtMC4wMzcsMC4yOTgtMC4zMzYsMC40ODEtMC40NDEsMC41NTUgICAgYy0wLjMzMiwwLjE4NS0wLjc0NywwLjIyNC0xLjAzMiwwLjA5N2MtMC41NDYtMC4yNDMtMC44NDUtMS4xNTEtMC44MDktMS44NTRjMC4wMjktMC41NjEtMC40MDItMS4wNDktMC45NjMtMS4wOTEgICAgYy0xLjQ2NS0wLjEwOS0yLjgwOC0wLjY1Ny0zLjk5LTEuNjI3QzUuNTIzLDI3LjM3Myw1LjE0MiwyNyw0Ljg0LDI2LjY1OGMwLjI5MywwLjAwOSwwLjYxOC0wLjAxOSwwLjk4Ni0wLjA5NSAgICBjMC43NTgtMC4xNTYsMS41NDItMC40LDIuMzk3LTAuNzQ2YzEuNTktMC42NDQsMy4xMzktMS4zOTQsNC42MDUtMi4yM2MxLjE0Ny0wLjY1NCwyLjMzNC0xLjMzMSwzLjU0Ny0xLjMxNCAgICBjMC45MTcsMC4wMTIsMS42MzgsMC4yODIsMi4yMzQsMC43OGwtNC4xNTMsMi4zNjhjLTAuNDgyLDAuMjc1LTAuNjQ3LDAuODg1LTAuMzY5LDEuMzYxbDIuNzI5LDQuNjcxICAgIEMxNi43ODEsMzEuNTk4LDE2Ljc3LDMxLjc0OCwxNi44MDMsMzEuOTA0eiBNMjQuNDA2LDQwLjQ1NmwtOC4wNjktMTMuODA4bDE5LjIxNi0xMC45Nmw4LjA2OSwxMy44MDdMMjQuNDA2LDQwLjQ1NnogICAgIE0zNS4zMiwxOS4yNzNjLTAuMjc4LTAuNDc3LTAuODk2LTAuNjQtMS4zNzctMC4zNjRjLTAuMzM4LDAuMTkyLTAuMzg3LDAuMzk1LTAuMzg3LDAuMzk1bC00LjIwMSw3LjE5OGwtOC4zNDQsMC4wMDIgICAgYy0wLjU1MiwwLTEsMC40NDMtMSwxczAuNDQ4LDEsMSwxbDguOTAzLDAuMDEyYzAsMCwwLjE5OSwwLjA2MiwwLjU0LTAuMTMzYzAuMTctMC4wOTgsMC4yODUtMC4yNDQsMC4zNzEtMC40MDNsMC4wMTYsMC4wMDggICAgbDQuNDk4LTcuNzQ4bC0wLjAxNi0wLjAwOEMzNS40NzgsMTkuOTM4LDM1LjUsMTkuNTgyLDM1LjMyLDE5LjI3M3oiLz4mI3hhOwk8L2c+JiN4YTs8L2c+JiN4YTs8L3N2Zz4=" vertex="1" parent="1">
          <mxGeometry x="23.5" y="540" width="48" height="48" as="geometry" />
        </mxCell>
        <mxCell id="5Y_TLcKwmcfd6Oil7Y43-25" value="Documento sai &#xa;do sistema&#xa;" style="shape=image;verticalLabelPosition=bottom;verticalAlign=top;aspect=fixed;image=data:image/svg+xml,PHN2ZyB4bWxucz0iaHR0cDovL3d3dy53My5vcmcvMjAwMC9zdmciIHhtbG5zOnhsaW5rPSJodHRwOi8vd3d3LnczLm9yZy8xOTk5L3hsaW5rIiB2ZXJzaW9uPSIxLjEiIGlkPSJMYXllcl8xIiB4PSIwcHgiIHk9IjBweCIgd2lkdGg9IjQ4cHgiIGhlaWdodD0iNDhweCIgdmlld0JveD0iMCAwIDQ4IDQ4IiBlbmFibGUtYmFja2dyb3VuZD0ibmV3IDAgMCA0OCA0OCIgeG1sOnNwYWNlPSJwcmVzZXJ2ZSI+JiN4YTs8ZyBpZD0iY29sb3JfMjdfIj4mI3hhOwk8Zz4mI3hhOwkJPHBhdGggZmlsbD0iIzg5OENDNSIgZD0iTTM3LjQsMTAuMDcxVjEwSDIxLjUzM0MxNy45MjUsMTAsMTUsMTIuODIsMTUsMTYuM3YxMC44YzAsMC40OTcsMC40MTgsMC45LDAuOTM0LDAuOWgyNi4xMzMgICAgQzQyLjU4MiwyOCw0MywyNy41OTcsNDMsMjcuMVYxNi4zQzQzLDEzLjEyNyw0MC41NjQsMTAuNTEsMzcuNCwxMC4wNzF6Ii8+JiN4YTsJPC9nPiYjeGE7PC9nPiYjeGE7PGcgaWQ9Im91dGxpbmVfMjZfIj4mI3hhOwk8Zz4mI3hhOwkJPHBhdGggZmlsbD0iIzM4NEQ2OCIgZD0iTTE2LjY4NiwxOGwtMi40MDQsMi4zOTJjLTAuMzc1LDAuMzczLTAuMzc1LDAuOTc5LDAsMS4zNTJzMC45ODIsMC4zNzMsMS4zNTcsMGw0LjA3My00LjA1MyAgICBjMC4zNzUtMC4zNzMsMC4zNzUtMC45NzgsMC0xLjM1MWwtNC4wNzMtNC4wNTNjLTAuMzc1LTAuMzczLTAuOTgyLTAuMzczLTEuMzU3LDBzLTAuMzc1LDAuOTc4LDAsMS4zNTFMMTYuNjU1LDE2SDEzICAgIGMtMy41MjIsMC02LTIuNTA5LTYtNlY1YzAtMC41NTMtMC40NDctMS0xLTFTNSw0LjQ0Nyw1LDVjMCwwLDAsNC4xMzcsMCw1YzAsNC40MTgsMy41ODIsOCw4LDhIMTYuNjg2eiBNMzQsNmgtNVYzICAgIGMwLTAuNTUzLTAuNDQ4LTEtMS0xaC00Yy0wLjU1MywwLTEsMC40NDctMSwxdjNoLTVjLTMuODY2LDAtNywzLjEzNC03LDd2MWgydi0xYzAtMi43NjIsMi4yMzgtNSw1LTVzNSwyLjIzOCw1LDV2MTAgICAgYzAsMC41NTItMC40NDcsMS0xLDFoLTl2LTRoLTJ2NWMwLDAuNTUyLDAuNDQ3LDEsMSwxaDExdjE5YzAsMC41NTMsMC40NDcsMSwxLDFoNGMwLjU1MiwwLDEtMC40NDcsMS0xVjI2aDExYzAuNTUzLDAsMS0wLjQ0OCwxLTEgICAgVjEzQzQxLDkuMTM0LDM3Ljg2Niw2LDM0LDZ6IE0yNSw0aDJ2MmgtMlY0eiBNMjcsNDRoLTJWMjZoMlY0NHogTTM5LDI0SDI2Yy0wLjU1MywwLTEtMC40NDgtMS0xVjEzYzAtMS45Ni0wLjgwOC0zLjcyOS0yLjEwNS01ICAgIEgzNGMyLjc2MiwwLDUsMi4yMzgsNSw1VjI0eiIvPiYjeGE7CTwvZz4mI3hhOzwvZz4mI3hhOzwvc3ZnPg==" vertex="1" parent="1">
          <mxGeometry x="1270" y="258" width="48" height="48" as="geometry" />
        </mxCell>
        <mxCell id="5Y_TLcKwmcfd6Oil7Y43-40" style="edgeStyle=orthogonalEdgeStyle;rounded=0;orthogonalLoop=1;jettySize=auto;html=1;exitX=1;exitY=0.5;exitDx=0;exitDy=0;entryX=0;entryY=0.5;entryDx=0;entryDy=0;" edge="1" parent="1" source="5Y_TLcKwmcfd6Oil7Y43-32" target="5Y_TLcKwmcfd6Oil7Y43-25">
          <mxGeometry relative="1" as="geometry" />
        </mxCell>
        <mxCell id="5Y_TLcKwmcfd6Oil7Y43-32" value="Documento está&#xa;pronto para trafegar&#xa;" style="shape=image;verticalLabelPosition=bottom;verticalAlign=top;aspect=fixed;image=data:image/svg+xml,PHN2ZyB4bWxucz0iaHR0cDovL3d3dy53My5vcmcvMjAwMC9zdmciIHhtbG5zOnhsaW5rPSJodHRwOi8vd3d3LnczLm9yZy8xOTk5L3hsaW5rIiB2ZXJzaW9uPSIxLjEiIGlkPSJMYXllcl8xIiB4PSIwcHgiIHk9IjBweCIgd2lkdGg9IjQ4cHgiIGhlaWdodD0iNDhweCIgdmlld0JveD0iMCAwIDQ4IDQ4IiBlbmFibGUtYmFja2dyb3VuZD0ibmV3IDAgMCA0OCA0OCIgeG1sOnNwYWNlPSJwcmVzZXJ2ZSI+JiN4YTs8ZyBpZD0iY29sb3JfMjhfIj4mI3hhOwk8Zz4mI3hhOwkJPHBhdGggZmlsbC1ydWxlPSJldmVub2RkIiBjbGlwLXJ1bGU9ImV2ZW5vZGQiIGZpbGw9IiNGMTYzNjIiIGQ9Ik00NCwzOEgzM1Y3YzAtMC41NTMtMC40NDctMS0xLTFIN0M2LjQ0Nyw2LDYsNi40NDcsNiw3djMyICAgIGMwLDMuNjY3LDEuOTM4LDUuNzUxLDUuNDM1LDUuOTU5QzEzLjk5Miw0NC41NDgsMTYsNDAuNjE1LDE2LDM4aDJjMCwzLjY2Ny0yLjgyLDYuNjctNi40MSw2Ljk3QzExLjcyOSw0NC45NzYsMTEuODU1LDQ1LDEyLDQ1aDI3ICAgIGMyLjg2NiwwLDYtMi4xMzQsNi01di0xQzQ1LDM4LjQ0Nyw0NC41NTMsMzgsNDQsMzh6Ii8+JiN4YTsJPC9nPiYjeGE7PC9nPiYjeGE7PGcgaWQ9Im91dGxpbmVfMjdfIj4mI3hhOwk8Zz4mI3hhOwkJPHBhdGggZmlsbD0iIzM4NEQ2OCIgZD0iTTIwLDE4SDljLTAuNTUzLDAtMSwwLjQ0Ny0xLDFzMC40NDcsMSwxLDFoMTFjMC41NTMsMCwxLTAuNDQ3LDEtMVMyMC41NTMsMTgsMjAsMTh6IE0yMCwyMkg5ICAgIGMtMC41NTMsMC0xLDAuNDQ3LTEsMXMwLjQ0NywxLDEsMWgxMWMwLjU1MywwLDEtMC40NDcsMS0xUzIwLjU1MywyMiwyMCwyMnogTTQ1LDM3SDM0VjNjMC0wLjU1My0wLjQ0Ny0xLTEtMUgzICAgIEMyLjQ0NywyLDIsMi40NDcsMiwzdjM2YzAsMy44NjYsMy4xMzQsNyw3LDdoMzBjMy44NjYsMCw3LTMuMTM0LDctN3YtMUM0NiwzNy40NDcsNDUuNTUzLDM3LDQ1LDM3eiBNOSw0NGMtMi43NjIsMC01LTIuMjM4LTUtNVY0ICAgIGgyOHYzM0gxNWMtMC41NTMsMC0xLDAuNDQ3LTEsMXYxQzE0LDQxLjc2MiwxMS43NjIsNDQsOSw0NHogTTM5LDQ0SDEzLjg5NUMxNS4xOTIsNDIuNzI5LDE2LDQwLjk2LDE2LDM5aDI4ICAgIEM0NCw0MS43NjIsNDEuNzYyLDQ0LDM5LDQ0eiBNMzAsMTNWN2MwLTAuNTUzLTAuNDQ3LTEtMS0xSDdDNi40NDcsNiw2LDYuNDQ3LDYsN3Y2YzAsMC41NTMsMC40NDcsMSwxLDFoMjIgICAgQzI5LjU1MywxNCwzMCwxMy41NTMsMzAsMTN6IE0xNywxMWMwLDAuNTUzLTAuNDQ3LDEtMSwxSDhWOGg4YzAuNTUzLDAsMSwwLjQ0NywxLDFWMTF6IE0yOCwxMmgtOGMtMC41NTMsMC0xLTAuNDQ3LTEtMVY5ICAgIGMwLTAuNTUzLDAuNDQ3LTEsMS0xaDhWMTJ6IE0xNiwyN2MwLTAuNTUzLTAuNDQ3LTEtMS0xSDljLTAuNTUzLDAtMSwwLjQ0Ny0xLDFzMC40NDcsMSwxLDFoNkMxNS41NTMsMjgsMTYsMjcuNTUzLDE2LDI3eiIvPiYjeGE7CTwvZz4mI3hhOzwvZz4mI3hhOzwvc3ZnPg==" vertex="1" parent="1">
          <mxGeometry x="1117" y="258" width="48" height="48" as="geometry" />
        </mxCell>
        <mxCell id="5Y_TLcKwmcfd6Oil7Y43-35" value="" style="shape=image;verticalLabelPosition=bottom;verticalAlign=top;aspect=fixed;image=data:image/svg+xml,PHN2ZyB4bWxucz0iaHR0cDovL3d3dy53My5vcmcvMjAwMC9zdmciIHhtbG5zOnhsaW5rPSJodHRwOi8vd3d3LnczLm9yZy8xOTk5L3hsaW5rIiB2ZXJzaW9uPSIxLjEiIGlkPSJMYXllcl8xIiB4PSIwcHgiIHk9IjBweCIgd2lkdGg9IjQ4cHgiIGhlaWdodD0iNDhweCIgdmlld0JveD0iMCAwIDQ4IDQ4IiBlbmFibGUtYmFja2dyb3VuZD0ibmV3IDAgMCA0OCA0OCIgeG1sOnNwYWNlPSJwcmVzZXJ2ZSI+JiN4YTs8ZyBpZD0iY29sb3JfNjBfIj4mI3hhOwk8Zz4mI3hhOwkJPHBhdGggZmlsbD0iI0ZGREE4RSIgZD0iTTQ0LjM2OSw0MC43MDJsLTIuMDYyLTMuMzk0Yy0wLjI4NS0wLjQ2OS0wLjkwOS0wLjYzMy0xLjM5NC0wLjM2N2wtMi42MzMsMS40NDNsLTEuMDMxLTEuNjk3bDIuNjMzLTEuNDQzICAgIGMwLjQ4NC0wLjI2NiwwLjY0Ni0wLjg2MSwwLjM2Mi0xLjMyOWwtMi4wNjMtMy4zOTRjLTAuMjg1LTAuNDY5LTAuOTA5LTAuNjM0LTEuMzk0LTAuMzY4bC0yLjYzMywxLjQ0M2wtNS43OTgtOS41NCAgICBjMS45MzktMi4xMzIsMy4xMzItNC45NTUsMy4xMzItOC4wNjRjMC02LjYyNy01LjM3My0xMi0xMi0xMnMtMTIsNS4zNzMtMTIsMTJzNS4zNzMsMTIsMTIsMTJjMS4zNDgsMCwyLjY0MS0wLjIzMiwzLjg1LTAuNjQzICAgIGwxMi4yNTQsMjAuMTYzYzAuMjg0LDAuNDY5LDAuOTA4LDAuNjMzLDEuMzkzLDAuMzY3bDcuMDIxLTMuODQ5QzQ0LjQ5Miw0MS43NjYsNDQuNjU0LDQxLjE3MSw0NC4zNjksNDAuNzAyeiIvPiYjeGE7CTwvZz4mI3hhOzwvZz4mI3hhOzxnIGlkPSJvdXRsaW5lXzU4XyI+JiN4YTsJPGc+JiN4YTsJCTxwYXRoIGZpbGw9IiMzODRENjgiIGQ9Ik00MC4zNjksNDAuNzAybC0yLjA2Mi0zLjM5NGMtMC4yODUtMC40NjktMC45MDktMC42MzMtMS4zOTQtMC4zNjdsLTIuNjMzLDEuNDQzbC0xLjAzMS0xLjY5N2wyLjYzMy0xLjQ0MyAgICBjMC40ODQtMC4yNjYsMC42NDYtMC44NjEsMC4zNjItMS4zMjlsLTIuMDYzLTMuMzk0Yy0wLjI4NS0wLjQ2OS0wLjkwOS0wLjYzNC0xLjM5NC0wLjM2OGwtMi42MzMsMS40NDNsLTUuNzk4LTkuNTQgICAgYzEuOTM5LTIuMTMyLDMuMTMyLTQuOTU1LDMuMTMyLTguMDY0YzAtNi42MjctNS4zNzMtMTItMTItMTJzLTEyLDUuMzczLTEyLDEyczUuMzczLDEyLDEyLDEyYzEuMzQ4LDAsMi42NDEtMC4yMzIsMy44NS0wLjY0MyAgICBsMTIuMjU0LDIwLjE2M2MwLjI4NCwwLjQ2OSwwLjkwOCwwLjYzMywxLjM5MywwLjM2N2w3LjAyMS0zLjg0OUM0MC40OTIsNDEuNzY2LDQwLjY1NCw0MS4xNzEsNDAuMzY5LDQwLjcwMnogTTMyLjgzMyw0My43MDIgICAgTDIwLjEzMSwyMi44NDZjLTEuMzg3LDAuNzI5LTIuOTY1LDEuMTQ2LTQuNjQxLDEuMTQ2Yy01LjUyMywwLTEwLTQuNDc4LTEwLTEwczQuNDc3LTEwLDEwLTEwczEwLDQuNDc4LDEwLDEwICAgIGMwLDMuMTI4LTEuNDM4LDUuOTE5LTMuNjg4LDcuNzUzbDcuMTE0LDExLjY2MmMwLjI4NCwwLjQ2OSwwLjkwOCwwLjYzMywxLjM5MywwLjM2N2wyLjYzMy0xLjQ0MmwxLjAzMSwxLjY5NmwtMi42MzMsMS40NDMgICAgYy0wLjQ4NCwwLjI2Ni0wLjY0NiwwLjg2LTAuMzYxLDEuMzI5bDIuMDYzLDMuMzk1YzAuMjg0LDAuNDY4LDAuOTA4LDAuNjMzLDEuMzkzLDAuMzY3bDIuNjMzLTEuNDQzbDEuMDMxLDEuNjk3TDMyLjgzMyw0My43MDJ6ICAgICBNMTUuNDksNS45OTJjLTQuNDE4LDAtOCwzLjU4Mi04LDhzMy41ODIsOCw4LDhzOC0zLjU4Miw4LThTMTkuOTA4LDUuOTkyLDE1LjQ5LDUuOTkyeiBNMTUuNDksMTkuOTkyYy0zLjMxNCwwLTYtMi42ODctNi02ICAgIHMyLjY4Ni02LDYtNmMzLjMxMywwLDYsMi42ODcsNiw2UzE4LjgwNCwxOS45OTIsMTUuNDksMTkuOTkyeiIvPiYjeGE7CTwvZz4mI3hhOzwvZz4mI3hhOzwvc3ZnPg==" vertex="1" parent="1">
          <mxGeometry x="1127" y="264" width="32" height="32" as="geometry" />
        </mxCell>
        <mxCell id="5Y_TLcKwmcfd6Oil7Y43-54" style="edgeStyle=orthogonalEdgeStyle;rounded=0;orthogonalLoop=1;jettySize=auto;html=1;exitX=1;exitY=0.5;exitDx=0;exitDy=0;entryX=0;entryY=0.5;entryDx=0;entryDy=0;" edge="1" parent="1" source="5Y_TLcKwmcfd6Oil7Y43-42" target="5Y_TLcKwmcfd6Oil7Y43-51">
          <mxGeometry relative="1" as="geometry" />
        </mxCell>
        <mxCell id="5Y_TLcKwmcfd6Oil7Y43-42" value="Processo de&#xa;descriptografia " style="shape=image;verticalLabelPosition=bottom;verticalAlign=top;aspect=fixed;image=data:image/svg+xml,PHN2ZyB4bWxucz0iaHR0cDovL3d3dy53My5vcmcvMjAwMC9zdmciIHhtbG5zOnhsaW5rPSJodHRwOi8vd3d3LnczLm9yZy8xOTk5L3hsaW5rIiB2ZXJzaW9uPSIxLjEiIGlkPSJMYXllcl8xIiB4PSIwcHgiIHk9IjBweCIgd2lkdGg9IjQ4cHgiIGhlaWdodD0iNDhweCIgdmlld0JveD0iMCAwIDQ4IDQ4IiBlbmFibGUtYmFja2dyb3VuZD0ibmV3IDAgMCA0OCA0OCIgeG1sOnNwYWNlPSJwcmVzZXJ2ZSI+JiN4YTs8ZyBpZD0iY29sb3JfNjBfIj4mI3hhOwk8Zz4mI3hhOwkJPHBhdGggZmlsbD0iI0ZGREE4RSIgZD0iTTQ0LjM2OSw0MC43MDJsLTIuMDYyLTMuMzk0Yy0wLjI4NS0wLjQ2OS0wLjkwOS0wLjYzMy0xLjM5NC0wLjM2N2wtMi42MzMsMS40NDNsLTEuMDMxLTEuNjk3bDIuNjMzLTEuNDQzICAgIGMwLjQ4NC0wLjI2NiwwLjY0Ni0wLjg2MSwwLjM2Mi0xLjMyOWwtMi4wNjMtMy4zOTRjLTAuMjg1LTAuNDY5LTAuOTA5LTAuNjM0LTEuMzk0LTAuMzY4bC0yLjYzMywxLjQ0M2wtNS43OTgtOS41NCAgICBjMS45MzktMi4xMzIsMy4xMzItNC45NTUsMy4xMzItOC4wNjRjMC02LjYyNy01LjM3My0xMi0xMi0xMnMtMTIsNS4zNzMtMTIsMTJzNS4zNzMsMTIsMTIsMTJjMS4zNDgsMCwyLjY0MS0wLjIzMiwzLjg1LTAuNjQzICAgIGwxMi4yNTQsMjAuMTYzYzAuMjg0LDAuNDY5LDAuOTA4LDAuNjMzLDEuMzkzLDAuMzY3bDcuMDIxLTMuODQ5QzQ0LjQ5Miw0MS43NjYsNDQuNjU0LDQxLjE3MSw0NC4zNjksNDAuNzAyeiIvPiYjeGE7CTwvZz4mI3hhOzwvZz4mI3hhOzxnIGlkPSJvdXRsaW5lXzU4XyI+JiN4YTsJPGc+JiN4YTsJCTxwYXRoIGZpbGw9IiMzODRENjgiIGQ9Ik00MC4zNjksNDAuNzAybC0yLjA2Mi0zLjM5NGMtMC4yODUtMC40NjktMC45MDktMC42MzMtMS4zOTQtMC4zNjdsLTIuNjMzLDEuNDQzbC0xLjAzMS0xLjY5N2wyLjYzMy0xLjQ0MyAgICBjMC40ODQtMC4yNjYsMC42NDYtMC44NjEsMC4zNjItMS4zMjlsLTIuMDYzLTMuMzk0Yy0wLjI4NS0wLjQ2OS0wLjkwOS0wLjYzNC0xLjM5NC0wLjM2OGwtMi42MzMsMS40NDNsLTUuNzk4LTkuNTQgICAgYzEuOTM5LTIuMTMyLDMuMTMyLTQuOTU1LDMuMTMyLTguMDY0YzAtNi42MjctNS4zNzMtMTItMTItMTJzLTEyLDUuMzczLTEyLDEyczUuMzczLDEyLDEyLDEyYzEuMzQ4LDAsMi42NDEtMC4yMzIsMy44NS0wLjY0MyAgICBsMTIuMjU0LDIwLjE2M2MwLjI4NCwwLjQ2OSwwLjkwOCwwLjYzMywxLjM5MywwLjM2N2w3LjAyMS0zLjg0OUM0MC40OTIsNDEuNzY2LDQwLjY1NCw0MS4xNzEsNDAuMzY5LDQwLjcwMnogTTMyLjgzMyw0My43MDIgICAgTDIwLjEzMSwyMi44NDZjLTEuMzg3LDAuNzI5LTIuOTY1LDEuMTQ2LTQuNjQxLDEuMTQ2Yy01LjUyMywwLTEwLTQuNDc4LTEwLTEwczQuNDc3LTEwLDEwLTEwczEwLDQuNDc4LDEwLDEwICAgIGMwLDMuMTI4LTEuNDM4LDUuOTE5LTMuNjg4LDcuNzUzbDcuMTE0LDExLjY2MmMwLjI4NCwwLjQ2OSwwLjkwOCwwLjYzMywxLjM5MywwLjM2N2wyLjYzMy0xLjQ0MmwxLjAzMSwxLjY5NmwtMi42MzMsMS40NDMgICAgYy0wLjQ4NCwwLjI2Ni0wLjY0NiwwLjg2LTAuMzYxLDEuMzI5bDIuMDYzLDMuMzk1YzAuMjg0LDAuNDY4LDAuOTA4LDAuNjMzLDEuMzkzLDAuMzY3bDIuNjMzLTEuNDQzbDEuMDMxLDEuNjk3TDMyLjgzMyw0My43MDJ6ICAgICBNMTUuNDksNS45OTJjLTQuNDE4LDAtOCwzLjU4Mi04LDhzMy41ODIsOCw4LDhzOC0zLjU4Miw4LThTMTkuOTA4LDUuOTkyLDE1LjQ5LDUuOTkyeiBNMTUuNDksMTkuOTkyYy0zLjMxNCwwLTYtMi42ODctNi02ICAgIHMyLjY4Ni02LDYtNmMzLjMxMywwLDYsMi42ODcsNiw2UzE4LjgwNCwxOS45OTIsMTUuNDksMTkuOTkyeiIvPiYjeGE7CTwvZz4mI3hhOzwvZz4mI3hhOzwvc3ZnPg==" vertex="1" parent="1">
          <mxGeometry x="147" y="540" width="48" height="48" as="geometry" />
        </mxCell>
        <mxCell id="5Y_TLcKwmcfd6Oil7Y43-50" style="edgeStyle=orthogonalEdgeStyle;rounded=0;orthogonalLoop=1;jettySize=auto;html=1;exitX=0.5;exitY=1;exitDx=0;exitDy=0;" edge="1" parent="1" source="5Y_TLcKwmcfd6Oil7Y43-46">
          <mxGeometry relative="1" as="geometry">
            <mxPoint x="854" y="260" as="targetPoint" />
          </mxGeometry>
        </mxCell>
        <mxCell id="5Y_TLcKwmcfd6Oil7Y43-46" value="Usuário consegue visualizar &#xa;o documento no sistema" style="shape=image;verticalLabelPosition=bottom;verticalAlign=top;aspect=fixed;image=data:image/svg+xml,PHN2ZyB4bWxucz0iaHR0cDovL3d3dy53My5vcmcvMjAwMC9zdmciIHhtbG5zOnhsaW5rPSJodHRwOi8vd3d3LnczLm9yZy8xOTk5L3hsaW5rIiB2ZXJzaW9uPSIxLjEiIGlkPSJMYXllcl8xIiB4PSIwcHgiIHk9IjBweCIgd2lkdGg9IjQ4cHgiIGhlaWdodD0iNDhweCIgdmlld0JveD0iMCAwIDQ4IDQ4IiBlbmFibGUtYmFja2dyb3VuZD0ibmV3IDAgMCA0OCA0OCIgeG1sOnNwYWNlPSJwcmVzZXJ2ZSI+JiN4YTs8ZyBpZD0iY29sb3JfMTZfIj4mI3hhOwk8Zz4mI3hhOwkJPHBhdGggZmlsbD0iI0ZGREE4RSIgZD0iTTE2LjAzNCw2LjEwOUMxNi4wNTcsNi4yMzcsMTYuMDgyLDYuMjcxLDE2LjAzNCw2LjEwOUwxNi4wMzQsNi4xMDl6IE0zNy45NjYsNi4xMDkgICAgQzM3LjkxOCw2LjI3MSwzNy45NDMsNi4yMzcsMzcuOTY2LDYuMTA5TDM3Ljk2Niw2LjEwOXogTTM3LDVIMTdjLTEuMDI2LDAtMS4wMTksMC43ODYtMC45NjgsMS4wOTYgICAgQzE2LjI3Miw2LjgxNywxNy45MDgsMTEuNzI4LDE4LDEydjEwYzAsNC42MDMsNC40NDQsOCw5LDhzOS0zLjM5Nyw5LThWMTJsMS45NjgtNS45MDRDMzguMDE5LDUuNzg2LDM4LjAyNiw1LDM3LDV6IE0zNy45NjgsNi4wOTYgICAgYy0wLjAwMSwwLjAwNS0wLjAwMSwwLjAwOS0wLjAwMiwwLjAxNEMzNy45NzUsNi4wNzksMzcuOTg1LDYuMDQ1LDM4LDZMMzcuOTY4LDYuMDk2eiBNMTYuMDM0LDYuMTA5ICAgIGMtMC4wMDEtMC4wMDQtMC4wMDEtMC4wMDktMC4wMDItMC4wMTNDMTYuMDEzLDYuMDM5LDE2LDYsMTYsNkMxNi4wMTUsNi4wNDUsMTYuMDI1LDYuMDc5LDE2LjAzNCw2LjEwOXoiLz4mI3hhOwk8L2c+JiN4YTs8L2c+JiN4YTs8ZyBpZD0ib3V0bGluZV8zMV8iPiYjeGE7CTxnPiYjeGE7CQk8cGF0aCBmaWxsLXJ1bGU9ImV2ZW5vZGQiIGNsaXAtcnVsZT0iZXZlbm9kZCIgZmlsbD0iIzM4NEQ2OCIgZD0iTTEyLjEwMywzLjQ3MWwtMC4wNTItMC4xNTVsMC4wMDUtMC4wMDIgICAgQzEyLjA4LDMuMzg5LDEyLjA5NCwzLjQzNiwxMi4xMDMsMy40NzFsMS45NDgsNS44NDVsMC4wMDUtMC4wMDJjMC4wODUsMC4yNTUsMC4yNzIsMC40NTQsMC41MDksMC41NzIgICAgQzE0LjIwMywxMC44NTYsMTQsMTEuOTAzLDE0LDEzdjdjMCw0Ljk3MSw1LjAyOSw5LDEwLDlzMTAtNC4wMjksMTAtOXYtN2MwLTEuMDU0LTAuMTg5LTIuMDYyLTAuNTI0LTNINDFjMC41NTMsMCwxLTAuNDQ3LDEtMSAgICBzLTAuNDQ3LTEtMS0xaC02LjYxM2wxLjUxMS00LjUyOWMwLjAwOS0wLjAzNiwwLjAyMi0wLjA4MywwLjA0Ny0wLjE1NmwwLjAwNSwwLjAwMmwtMC4wNTIsMC4xNTRDMzUuNzk3LDMuODc2LDM2LjU3MywyLDM1LDJIMTMgICAgQzExLjQyNiwyLDEyLjIwMiwzLjg3NSwxMi4xMDMsMy40NzF6IE0zMiwyMGMwLDMuODY2LTQuMTM0LDctOCw3cy04LTMuMTM0LTgtN3YtN2MwLTEuMDc3LDAuMjU0LTIuMDkxLDAuNjktM2gxNC42MTggICAgQzMxLjc0NiwxMC45MDksMzIsMTEuOTIzLDMyLDEzVjIweiBNMzMuNjEzLDRsLTEuMzM0LDRIMTUuNzIxbC0xLjMzNC00SDMzLjYxM3ogTTM2LDMzSDEyQzYuNDc3LDMzLDIsMzcuNDc4LDIsNDN2MiAgICBjMCwwLjU1MywwLjQ0NywxLDEsMXMxLTAuNDQ3LDEtMXYtMmMwLTQuNDE4LDMuNTgyLTgsOC04aDI0YzQuNDE4LDAsOCwzLjU4Miw4LDh2MmMwLDAuNTUzLDAuNDQ3LDEsMSwxczEtMC40NDcsMS0xdi0yICAgIEM0NiwzNy40NzgsNDEuNTIzLDMzLDM2LDMzeiBNMjQsMjFjMC41NTMsMCwxLTAuNDQ3LDEtMXYtNGMwLTAuNTUzLTAuNDQ3LTEtMS0xcy0xLDAuNDQ3LTEsMXY0QzIzLDIwLjU1MywyMy40NDcsMjEsMjQsMjF6ICAgICBNMjgsMTNjLTAuNTUzLDAtMSwwLjQ0Ny0xLDFzMC40NDcsMSwxLDFzMS0wLjQ0NywxLTFTMjguNTUzLDEzLDI4LDEzeiBNMjAsMTVjMC41NTMsMCwxLTAuNDQ3LDEtMXMtMC40NDctMS0xLTFzLTEsMC40NDctMSwxICAgIFMxOS40NDcsMTUsMjAsMTV6IE0yOCwyMWMtMC4yODUsMC0wLjUzOSwwLjEyMy0wLjcyMiwwLjMxNEMyNi41NDksMjIuMDM3LDI1LjA5NiwyMywyNCwyM2MtMS4xMDQsMC0yLjU3My0xLjAxLTMuMjk3LTEuNzM0ICAgIGMwLDAtMC4xNzgtMC4yNjYtMC43MDMtMC4yNjZjLTAuNTUzLDAtMSwwLjQ0Ny0xLDFjMCwwLjMxNiwwLjE1NiwwLjU4NywwLjM4NiwwLjc3QzIwLjQ4OCwyMy44MzMsMjIuMzg5LDI1LDI0LDI1ICAgIGMxLjY1NiwwLDMuNjI1LTEuMjAzLDQuNzExLTIuMjg5bC0wLjAwNC0wLjAwNEMyOC44ODksMjIuNTI2LDI5LDIyLjI3NiwyOSwyMkMyOSwyMS40NDcsMjguNTUzLDIxLDI4LDIxeiIvPiYjeGE7CTwvZz4mI3hhOzwvZz4mI3hhOzwvc3ZnPg==;spacingTop=-85;" vertex="1" parent="1">
          <mxGeometry x="830" y="150" width="48" height="48" as="geometry" />
        </mxCell>
        <mxCell id="5Y_TLcKwmcfd6Oil7Y43-60" style="edgeStyle=orthogonalEdgeStyle;rounded=0;orthogonalLoop=1;jettySize=auto;html=1;exitX=0.5;exitY=0;exitDx=0;exitDy=0;" edge="1" parent="1" source="5Y_TLcKwmcfd6Oil7Y43-51" target="3ne1QswCM8ZiEu4GHsYG-4">
          <mxGeometry relative="1" as="geometry" />
        </mxCell>
        <mxCell id="5Y_TLcKwmcfd6Oil7Y43-51" value="Documento é &#xa;descriptografado" style="shape=image;verticalLabelPosition=bottom;verticalAlign=top;aspect=fixed;image=data:image/svg+xml,PHN2ZyB4bWxucz0iaHR0cDovL3d3dy53My5vcmcvMjAwMC9zdmciIHhtbG5zOnhsaW5rPSJodHRwOi8vd3d3LnczLm9yZy8xOTk5L3hsaW5rIiB2ZXJzaW9uPSIxLjEiIGlkPSJMYXllcl8xIiB4PSIwcHgiIHk9IjBweCIgd2lkdGg9IjQ4cHgiIGhlaWdodD0iNDhweCIgdmlld0JveD0iMCAwIDQ4IDQ4IiBlbmFibGUtYmFja2dyb3VuZD0ibmV3IDAgMCA0OCA0OCIgeG1sOnNwYWNlPSJwcmVzZXJ2ZSI+JiN4YTs8ZyBpZD0iY29sb3JfMjhfIj4mI3hhOwk8Zz4mI3hhOwkJPHBhdGggZmlsbC1ydWxlPSJldmVub2RkIiBjbGlwLXJ1bGU9ImV2ZW5vZGQiIGZpbGw9IiNGMTYzNjIiIGQ9Ik00NCwzOEgzM1Y3YzAtMC41NTMtMC40NDctMS0xLTFIN0M2LjQ0Nyw2LDYsNi40NDcsNiw3djMyICAgIGMwLDMuNjY3LDEuOTM4LDUuNzUxLDUuNDM1LDUuOTU5QzEzLjk5Miw0NC41NDgsMTYsNDAuNjE1LDE2LDM4aDJjMCwzLjY2Ny0yLjgyLDYuNjctNi40MSw2Ljk3QzExLjcyOSw0NC45NzYsMTEuODU1LDQ1LDEyLDQ1aDI3ICAgIGMyLjg2NiwwLDYtMi4xMzQsNi01di0xQzQ1LDM4LjQ0Nyw0NC41NTMsMzgsNDQsMzh6Ii8+JiN4YTsJPC9nPiYjeGE7PC9nPiYjeGE7PGcgaWQ9Im91dGxpbmVfMjdfIj4mI3hhOwk8Zz4mI3hhOwkJPHBhdGggZmlsbD0iIzM4NEQ2OCIgZD0iTTIwLDE4SDljLTAuNTUzLDAtMSwwLjQ0Ny0xLDFzMC40NDcsMSwxLDFoMTFjMC41NTMsMCwxLTAuNDQ3LDEtMVMyMC41NTMsMTgsMjAsMTh6IE0yMCwyMkg5ICAgIGMtMC41NTMsMC0xLDAuNDQ3LTEsMXMwLjQ0NywxLDEsMWgxMWMwLjU1MywwLDEtMC40NDcsMS0xUzIwLjU1MywyMiwyMCwyMnogTTQ1LDM3SDM0VjNjMC0wLjU1My0wLjQ0Ny0xLTEtMUgzICAgIEMyLjQ0NywyLDIsMi40NDcsMiwzdjM2YzAsMy44NjYsMy4xMzQsNyw3LDdoMzBjMy44NjYsMCw3LTMuMTM0LDctN3YtMUM0NiwzNy40NDcsNDUuNTUzLDM3LDQ1LDM3eiBNOSw0NGMtMi43NjIsMC01LTIuMjM4LTUtNVY0ICAgIGgyOHYzM0gxNWMtMC41NTMsMC0xLDAuNDQ3LTEsMXYxQzE0LDQxLjc2MiwxMS43NjIsNDQsOSw0NHogTTM5LDQ0SDEzLjg5NUMxNS4xOTIsNDIuNzI5LDE2LDQwLjk2LDE2LDM5aDI4ICAgIEM0NCw0MS43NjIsNDEuNzYyLDQ0LDM5LDQ0eiBNMzAsMTNWN2MwLTAuNTUzLTAuNDQ3LTEtMS0xSDdDNi40NDcsNiw2LDYuNDQ3LDYsN3Y2YzAsMC41NTMsMC40NDcsMSwxLDFoMjIgICAgQzI5LjU1MywxNCwzMCwxMy41NTMsMzAsMTN6IE0xNywxMWMwLDAuNTUzLTAuNDQ3LDEtMSwxSDhWOGg4YzAuNTUzLDAsMSwwLjQ0NywxLDFWMTF6IE0yOCwxMmgtOGMtMC41NTMsMC0xLTAuNDQ3LTEtMVY5ICAgIGMwLTAuNTUzLDAuNDQ3LTEsMS0xaDhWMTJ6IE0xNiwyN2MwLTAuNTUzLTAuNDQ3LTEtMS0xSDljLTAuNTUzLDAtMSwwLjQ0Ny0xLDFzMC40NDcsMSwxLDFoNkMxNS41NTMsMjgsMTYsMjcuNTUzLDE2LDI3eiIvPiYjeGE7CTwvZz4mI3hhOzwvZz4mI3hhOzwvc3ZnPg==" vertex="1" parent="1">
          <mxGeometry x="267" y="540" width="48" height="48" as="geometry" />
        </mxCell>
        <mxCell id="5Y_TLcKwmcfd6Oil7Y43-59" style="edgeStyle=orthogonalEdgeStyle;rounded=0;orthogonalLoop=1;jettySize=auto;html=1;exitX=0.5;exitY=0;exitDx=0;exitDy=0;entryX=1;entryY=0.5;entryDx=0;entryDy=0;" edge="1" parent="1" source="5Y_TLcKwmcfd6Oil7Y43-55" target="5Y_TLcKwmcfd6Oil7Y43-51">
          <mxGeometry relative="1" as="geometry" />
        </mxCell>
        <mxCell id="5Y_TLcKwmcfd6Oil7Y43-55" value="Usuário consegue visualizar &#xa;o documento no sistema" style="shape=image;verticalLabelPosition=bottom;verticalAlign=top;aspect=fixed;image=data:image/svg+xml,PHN2ZyB4bWxucz0iaHR0cDovL3d3dy53My5vcmcvMjAwMC9zdmciIHhtbG5zOnhsaW5rPSJodHRwOi8vd3d3LnczLm9yZy8xOTk5L3hsaW5rIiB2ZXJzaW9uPSIxLjEiIGlkPSJMYXllcl8xIiB4PSIwcHgiIHk9IjBweCIgd2lkdGg9IjQ4cHgiIGhlaWdodD0iNDhweCIgdmlld0JveD0iMCAwIDQ4IDQ4IiBlbmFibGUtYmFja2dyb3VuZD0ibmV3IDAgMCA0OCA0OCIgeG1sOnNwYWNlPSJwcmVzZXJ2ZSI+JiN4YTs8ZyBpZD0iY29sb3JfMTZfIj4mI3hhOwk8Zz4mI3hhOwkJPHBhdGggZmlsbD0iI0ZGREE4RSIgZD0iTTE2LjAzNCw2LjEwOUMxNi4wNTcsNi4yMzcsMTYuMDgyLDYuMjcxLDE2LjAzNCw2LjEwOUwxNi4wMzQsNi4xMDl6IE0zNy45NjYsNi4xMDkgICAgQzM3LjkxOCw2LjI3MSwzNy45NDMsNi4yMzcsMzcuOTY2LDYuMTA5TDM3Ljk2Niw2LjEwOXogTTM3LDVIMTdjLTEuMDI2LDAtMS4wMTksMC43ODYtMC45NjgsMS4wOTYgICAgQzE2LjI3Miw2LjgxNywxNy45MDgsMTEuNzI4LDE4LDEydjEwYzAsNC42MDMsNC40NDQsOCw5LDhzOS0zLjM5Nyw5LThWMTJsMS45NjgtNS45MDRDMzguMDE5LDUuNzg2LDM4LjAyNiw1LDM3LDV6IE0zNy45NjgsNi4wOTYgICAgYy0wLjAwMSwwLjAwNS0wLjAwMSwwLjAwOS0wLjAwMiwwLjAxNEMzNy45NzUsNi4wNzksMzcuOTg1LDYuMDQ1LDM4LDZMMzcuOTY4LDYuMDk2eiBNMTYuMDM0LDYuMTA5ICAgIGMtMC4wMDEtMC4wMDQtMC4wMDEtMC4wMDktMC4wMDItMC4wMTNDMTYuMDEzLDYuMDM5LDE2LDYsMTYsNkMxNi4wMTUsNi4wNDUsMTYuMDI1LDYuMDc5LDE2LjAzNCw2LjEwOXoiLz4mI3hhOwk8L2c+JiN4YTs8L2c+JiN4YTs8ZyBpZD0ib3V0bGluZV8zMV8iPiYjeGE7CTxnPiYjeGE7CQk8cGF0aCBmaWxsLXJ1bGU9ImV2ZW5vZGQiIGNsaXAtcnVsZT0iZXZlbm9kZCIgZmlsbD0iIzM4NEQ2OCIgZD0iTTEyLjEwMywzLjQ3MWwtMC4wNTItMC4xNTVsMC4wMDUtMC4wMDIgICAgQzEyLjA4LDMuMzg5LDEyLjA5NCwzLjQzNiwxMi4xMDMsMy40NzFsMS45NDgsNS44NDVsMC4wMDUtMC4wMDJjMC4wODUsMC4yNTUsMC4yNzIsMC40NTQsMC41MDksMC41NzIgICAgQzE0LjIwMywxMC44NTYsMTQsMTEuOTAzLDE0LDEzdjdjMCw0Ljk3MSw1LjAyOSw5LDEwLDlzMTAtNC4wMjksMTAtOXYtN2MwLTEuMDU0LTAuMTg5LTIuMDYyLTAuNTI0LTNINDFjMC41NTMsMCwxLTAuNDQ3LDEtMSAgICBzLTAuNDQ3LTEtMS0xaC02LjYxM2wxLjUxMS00LjUyOWMwLjAwOS0wLjAzNiwwLjAyMi0wLjA4MywwLjA0Ny0wLjE1NmwwLjAwNSwwLjAwMmwtMC4wNTIsMC4xNTRDMzUuNzk3LDMuODc2LDM2LjU3MywyLDM1LDJIMTMgICAgQzExLjQyNiwyLDEyLjIwMiwzLjg3NSwxMi4xMDMsMy40NzF6IE0zMiwyMGMwLDMuODY2LTQuMTM0LDctOCw3cy04LTMuMTM0LTgtN3YtN2MwLTEuMDc3LDAuMjU0LTIuMDkxLDAuNjktM2gxNC42MTggICAgQzMxLjc0NiwxMC45MDksMzIsMTEuOTIzLDMyLDEzVjIweiBNMzMuNjEzLDRsLTEuMzM0LDRIMTUuNzIxbC0xLjMzNC00SDMzLjYxM3ogTTM2LDMzSDEyQzYuNDc3LDMzLDIsMzcuNDc4LDIsNDN2MiAgICBjMCwwLjU1MywwLjQ0NywxLDEsMXMxLTAuNDQ3LDEtMXYtMmMwLTQuNDE4LDMuNTgyLTgsOC04aDI0YzQuNDE4LDAsOCwzLjU4Miw4LDh2MmMwLDAuNTUzLDAuNDQ3LDEsMSwxczEtMC40NDcsMS0xdi0yICAgIEM0NiwzNy40NzgsNDEuNTIzLDMzLDM2LDMzeiBNMjQsMjFjMC41NTMsMCwxLTAuNDQ3LDEtMXYtNGMwLTAuNTUzLTAuNDQ3LTEtMS0xcy0xLDAuNDQ3LTEsMXY0QzIzLDIwLjU1MywyMy40NDcsMjEsMjQsMjF6ICAgICBNMjgsMTNjLTAuNTUzLDAtMSwwLjQ0Ny0xLDFzMC40NDcsMSwxLDFzMS0wLjQ0NywxLTFTMjguNTUzLDEzLDI4LDEzeiBNMjAsMTVjMC41NTMsMCwxLTAuNDQ3LDEtMXMtMC40NDctMS0xLTFzLTEsMC40NDctMSwxICAgIFMxOS40NDcsMTUsMjAsMTV6IE0yOCwyMWMtMC4yODUsMC0wLjUzOSwwLjEyMy0wLjcyMiwwLjMxNEMyNi41NDksMjIuMDM3LDI1LjA5NiwyMywyNCwyM2MtMS4xMDQsMC0yLjU3My0xLjAxLTMuMjk3LTEuNzM0ICAgIGMwLDAtMC4xNzgtMC4yNjYtMC43MDMtMC4yNjZjLTAuNTUzLDAtMSwwLjQ0Ny0xLDFjMCwwLjMxNiwwLjE1NiwwLjU4NywwLjM4NiwwLjc3QzIwLjQ4OCwyMy44MzMsMjIuMzg5LDI1LDI0LDI1ICAgIGMxLjY1NiwwLDMuNjI1LTEuMjAzLDQuNzExLTIuMjg5bC0wLjAwNC0wLjAwNEMyOC44ODksMjIuNTI2LDI5LDIyLjI3NiwyOSwyMkMyOSwyMS40NDcsMjguNTUzLDIxLDI4LDIxeiIvPiYjeGE7CTwvZz4mI3hhOzwvZz4mI3hhOzwvc3ZnPg==;spacingTop=0;" vertex="1" parent="1">
          <mxGeometry x="387" y="640" width="48" height="48" as="geometry" />
        </mxCell>
      </root>
    </mxGraphModel>
  </diagram>
</mxfile>
